{
  "header": {
    "PPQ": 480,
    "bpm": 120,
    "name": ""
  },
  "tempo": [
    {
      "absoluteTime": 0,
      "seconds": 0,
      "bpm": 120
    }
  ],
  "timeSignature": [],
  "startTime": 0,
  "duration": 165.88541666666652,
  "tracks": [
    {
      "startTime": 0,
      "duration": 0,
      "length": 0,
      "notes": [],
      "controlChanges": {},
      "id": 0,
      "name": ""
    },
    {
      "startTime": 0.011458333333333333,
      "duration": 165.88541666666652,
      "length": 990,
      "notes": [
        {
          "name": "D4",
          "midi": 62,
          "time": 0.011458333333333333,
          "velocity": 0.6377952755905512,
          "duration": 0.15104166666666669
        },
        {
          "name": "B2",
          "midi": 47,
          "time": 0.011458333333333333,
          "velocity": 0.5354330708661418,
          "duration": 0.7197916666666666
        },
        {
          "name": "F#4",
          "midi": 66,
          "time": 0.022916666666666665,
          "velocity": 0.2677165354330709,
          "duration": 0.1625
        },
        {
          "name": "F#3",
          "midi": 54,
          "time": 0.022916666666666665,
          "velocity": 0.6456692913385826,
          "duration": 0.1625
        },
        {
          "name": "D4",
          "midi": 62,
          "time": 0.1625,
          "velocity": 0.5039370078740157,
          "duration": 0.6270833333333333
        },
        {
          "name": "F#3",
          "midi": 54,
          "time": 0.18541666666666667,
          "velocity": 0.6377952755905512,
          "duration": 0.4760416666666666
        },
        {
          "name": "D5",
          "midi": 74,
          "time": 0.3833333333333333,
          "velocity": 0.3779527559055118,
          "duration": 0.08124999999999999
        },
        {
          "name": "D4",
          "midi": 62,
          "time": 0.7895833333333333,
          "velocity": 0.4330708661417323,
          "duration": 0.09270833333333339
        },
        {
          "name": "C#4",
          "midi": 61,
          "time": 0.9177083333333333,
          "velocity": 0.48031496062992124,
          "duration": 0.3604166666666666
        },
        {
          "name": "F#3",
          "midi": 54,
          "time": 0.9177083333333333,
          "velocity": 0.5433070866141733,
          "duration": 0.22083333333333321
        },
        {
          "name": "A2",
          "midi": 45,
          "time": 0.9291666666666667,
          "velocity": 0.5118110236220472,
          "duration": 0.3364583333333333
        },
        {
          "name": "F#3",
          "midi": 54,
          "time": 1.1375,
          "velocity": 0.3937007874015748,
          "duration": 0.32499999999999996
        },
        {
          "name": "C#4",
          "midi": 61,
          "time": 1.4166666666666665,
          "velocity": 0.33858267716535434,
          "duration": 0.1395833333333334
        },
        {
          "name": "F#3",
          "midi": 54,
          "time": 1.4625,
          "velocity": 0.3700787401574803,
          "duration": 0.08125000000000004
        },
        {
          "name": "A2",
          "midi": 45,
          "time": 1.7062499999999998,
          "velocity": 0.29133858267716534,
          "duration": 0.0697916666666667
        },
        {
          "name": "A3",
          "midi": 57,
          "time": 1.8343749999999999,
          "velocity": 0.5511811023622047,
          "duration": 0.3374999999999997
        },
        {
          "name": "F#3",
          "midi": 54,
          "time": 1.8343749999999999,
          "velocity": 0.5905511811023622,
          "duration": 0.18749999999999978
        },
        {
          "name": "F#3",
          "midi": 54,
          "time": 2.0218749999999996,
          "velocity": 0.4330708661417323,
          "duration": 0.7427083333333329
        },
        {
          "name": "A3",
          "midi": 57,
          "time": 2.2302083333333327,
          "velocity": 0.3937007874015748,
          "duration": 0.5343749999999998
        },
        {
          "name": "A3",
          "midi": 57,
          "time": 2.7645833333333325,
          "velocity": 0.3779527559055118,
          "duration": 0.11562500000000009
        },
        {
          "name": "F#3",
          "midi": 54,
          "time": 3.078124999999999,
          "velocity": 0.41732283464566927,
          "duration": 0.23229166666666679
        },
        {
          "name": "B4",
          "midi": 71,
          "time": 3.646874999999999,
          "velocity": 0.2204724409448819,
          "duration": 0.09270833333333295
        },
        {
          "name": "B3",
          "midi": 59,
          "time": 3.646874999999999,
          "velocity": 0.5118110236220472,
          "duration": 1.1625
        },
        {
          "name": "F#3",
          "midi": 54,
          "time": 3.6583333333333323,
          "velocity": 0.7086614173228346,
          "duration": 0.20937499999999964
        },
        {
          "name": "G2",
          "midi": 43,
          "time": 3.6697916666666655,
          "velocity": 0.3858267716535433,
          "duration": 0.5239583333333333
        },
        {
          "name": "F#3",
          "midi": 54,
          "time": 3.867708333333332,
          "velocity": 0.5826771653543307,
          "duration": 0.29166666666666696
        },
        {
          "name": "F#3",
          "midi": 54,
          "time": 4.159374999999999,
          "velocity": 0.3779527559055118,
          "duration": 0.4989583333333334
        },
        {
          "name": "G2",
          "midi": 43,
          "time": 4.321874999999999,
          "velocity": 0.3464566929133858,
          "duration": 0.2666666666666666
        },
        {
          "name": "G1",
          "midi": 31,
          "time": 4.3791666666666655,
          "velocity": 0.33858267716535434,
          "duration": 0.25520833333333304
        },
        {
          "name": "B3",
          "midi": 59,
          "time": 4.971874999999999,
          "velocity": 0.31496062992125984,
          "duration": 0.20937499999999964
        },
        {
          "name": "F#3",
          "midi": 54,
          "time": 5.134374999999999,
          "velocity": 0.41732283464566927,
          "duration": 0.18541666666666679
        },
        {
          "name": "A3",
          "midi": 57,
          "time": 5.470833333333332,
          "velocity": 0.5590551181102362,
          "duration": 0.7093749999999996
        },
        {
          "name": "F#3",
          "midi": 54,
          "time": 5.470833333333332,
          "velocity": 0.49606299212598426,
          "duration": 0.2666666666666666
        },
        {
          "name": "G2",
          "midi": 43,
          "time": 5.482291666666666,
          "velocity": 0.4645669291338583,
          "duration": 0.30208333333333304
        },
        {
          "name": "F#3",
          "midi": 54,
          "time": 5.737499999999999,
          "velocity": 0.6535433070866141,
          "duration": 0.09270833333333339
        },
        {
          "name": "F#3",
          "midi": 54,
          "time": 5.831249999999999,
          "velocity": 0.6062992125984252,
          "duration": 0.1875
        },
        {
          "name": "F#3",
          "midi": 54,
          "time": 6.017708333333332,
          "velocity": 0.3858267716535433,
          "duration": 0.29062499999999947
        },
        {
          "name": "F#3",
          "midi": 54,
          "time": 6.308333333333332,
          "velocity": 0.5039370078740157,
          "duration": 0.08124999999999982
        },
        {
          "name": "A3",
          "midi": 57,
          "time": 6.342708333333332,
          "velocity": 0.3858267716535433,
          "duration": 0.18541666666666679
        },
        {
          "name": "F#3",
          "midi": 54,
          "time": 6.389583333333332,
          "velocity": 0.4251968503937008,
          "duration": 0.46458333333333357
        },
        {
          "name": "F#3",
          "midi": 54,
          "time": 6.854166666666665,
          "velocity": 0.4409448818897638,
          "duration": 0.12812499999999982
        },
        {
          "name": "A3",
          "midi": 57,
          "time": 6.865624999999999,
          "velocity": 0.33858267716535434,
          "duration": 0.08124999999999982
        },
        {
          "name": "F#3",
          "midi": 54,
          "time": 7.283333333333331,
          "velocity": 0.6220472440944882,
          "duration": 0.46458333333333357
        },
        {
          "name": "B2",
          "midi": 47,
          "time": 7.294791666666665,
          "velocity": 0.5905511811023622,
          "duration": 0.42916666666666714
        },
        {
          "name": "D4",
          "midi": 62,
          "time": 7.317708333333331,
          "velocity": 0.6141732283464567,
          "duration": 0.47604166666666714
        },
        {
          "name": "B3",
          "midi": 59,
          "time": 7.422916666666665,
          "velocity": 0.3937007874015748,
          "duration": 0.24375000000000036
        },
        {
          "name": "B2",
          "midi": 47,
          "time": 7.724999999999999,
          "velocity": 0.47244094488188976,
          "duration": 0.35000000000000053
        },
        {
          "name": "F#3",
          "midi": 54,
          "time": 7.747916666666665,
          "velocity": 0.4881889763779528,
          "duration": 0.4427083333333339
        },
        {
          "name": "A2",
          "midi": 45,
          "time": 8.178125,
          "velocity": 0.5590551181102362,
          "duration": 0.10416666666666607
        },
        {
          "name": "F#3",
          "midi": 54,
          "time": 8.190624999999999,
          "velocity": 0.5826771653543307,
          "duration": 0.27812500000000107
        },
        {
          "name": "C#4",
          "midi": 61,
          "time": 8.202083333333333,
          "velocity": 0.5275590551181102,
          "duration": 0.8239583333333336
        },
        {
          "name": "A2",
          "midi": 45,
          "time": 8.283333333333333,
          "velocity": 0.5275590551181102,
          "duration": 0.6500000000000004
        },
        {
          "name": "F#3",
          "midi": 54,
          "time": 8.46875,
          "velocity": 0.7716535433070866,
          "duration": 0.06979166666666714
        },
        {
          "name": "F#3",
          "midi": 54,
          "time": 8.538541666666667,
          "velocity": 0.49606299212598426,
          "duration": 0.5687499999999996
        },
        {
          "name": "A3",
          "midi": 57,
          "time": 9.095833333333333,
          "velocity": 0.5669291338582677,
          "duration": 0.1281250000000007
        },
        {
          "name": "F#3",
          "midi": 54,
          "time": 9.107291666666667,
          "velocity": 0.5275590551181102,
          "duration": 0.8124999999999982
        },
        {
          "name": "A2",
          "midi": 45,
          "time": 9.107291666666667,
          "velocity": 0.28346456692913385,
          "duration": 0.17395833333333321
        },
        {
          "name": "G2",
          "midi": 43,
          "time": 9.188541666666667,
          "velocity": 0.3464566929133858,
          "duration": 0.08124999999999893
        },
        {
          "name": "A3",
          "midi": 57,
          "time": 9.223958333333334,
          "velocity": 0.5905511811023622,
          "duration": 0.42916666666666536
        },
        {
          "name": "G2",
          "midi": 43,
          "time": 9.455208333333333,
          "velocity": 0.3937007874015748,
          "duration": 0.22083333333333321
        },
        {
          "name": "A3",
          "midi": 57,
          "time": 9.653125,
          "velocity": 0.41732283464566927,
          "duration": 0.4072916666666657
        },
        {
          "name": "G2",
          "midi": 43,
          "time": 9.815624999999999,
          "velocity": 0.36220472440944884,
          "duration": 0.17499999999999893
        },
        {
          "name": "F#3",
          "midi": 54,
          "time": 9.919791666666665,
          "velocity": 0.5039370078740157,
          "duration": 0.3614583333333332
        },
        {
          "name": "A3",
          "midi": 57,
          "time": 10.060416666666665,
          "velocity": 0.4251968503937008,
          "duration": 0.20937499999999964
        },
        {
          "name": "A3",
          "midi": 57,
          "time": 10.432291666666664,
          "velocity": 0.4566929133858268,
          "duration": 0.2552083333333339
        },
        {
          "name": "F#3",
          "midi": 54,
          "time": 10.443749999999998,
          "velocity": 0.49606299212598426,
          "duration": 0.1281250000000007
        },
        {
          "name": "G2",
          "midi": 43,
          "time": 10.466666666666665,
          "velocity": 0.3464566929133858,
          "duration": 0.11562499999999964
        },
        {
          "name": "F#3",
          "midi": 54,
          "time": 10.571874999999999,
          "velocity": 0.44881889763779526,
          "duration": 0.23229166666666679
        },
        {
          "name": "B3",
          "midi": 59,
          "time": 10.919791666666665,
          "velocity": 0.6929133858267716,
          "duration": 0.5687499999999996
        },
        {
          "name": "F#3",
          "midi": 54,
          "time": 10.919791666666665,
          "velocity": 0.5905511811023622,
          "duration": 0.1281250000000007
        },
        {
          "name": "G2",
          "midi": 43,
          "time": 10.931249999999999,
          "velocity": 0.5039370078740157,
          "duration": 0.5802083333333332
        },
        {
          "name": "F#3",
          "midi": 54,
          "time": 11.047916666666666,
          "velocity": 0.6771653543307087,
          "duration": 0.11562499999999964
        },
        {
          "name": "F#3",
          "midi": 54,
          "time": 11.163541666666665,
          "velocity": 0.5905511811023622,
          "duration": 0.5916666666666668
        },
        {
          "name": "B3",
          "midi": 59,
          "time": 11.488541666666665,
          "velocity": 0.5275590551181102,
          "duration": 1.0812500000000007
        },
        {
          "name": "G2",
          "midi": 43,
          "time": 11.511458333333332,
          "velocity": 0.47244094488188976,
          "duration": 0.59375
        },
        {
          "name": "F#3",
          "midi": 54,
          "time": 11.755208333333332,
          "velocity": 0.5354330708661418,
          "duration": 0.2802083333333325
        },
        {
          "name": "F#3",
          "midi": 54,
          "time": 12.197916666666664,
          "velocity": 0.41732283464566927,
          "duration": 0.33645833333333464
        },
        {
          "name": "G2",
          "midi": 43,
          "time": 12.511458333333332,
          "velocity": 0.3228346456692913,
          "duration": 0.06979166666666714
        },
        {
          "name": "F#3",
          "midi": 54,
          "time": 12.6625,
          "velocity": 0.33070866141732286,
          "duration": 0.06979166666666714
        },
        {
          "name": "A2",
          "midi": 45,
          "time": 12.720833333333333,
          "velocity": 0.4881889763779528,
          "duration": 0.06979166666666714
        },
        {
          "name": "A3",
          "midi": 57,
          "time": 12.732291666666667,
          "velocity": 0.4094488188976378,
          "duration": 0.2552083333333339
        },
        {
          "name": "F#3",
          "midi": 54,
          "time": 12.732291666666667,
          "velocity": 0.6929133858267716,
          "duration": 0.10416666666666785
        },
        {
          "name": "A2",
          "midi": 45,
          "time": 12.802083333333334,
          "velocity": 0.6614173228346457,
          "duration": 0.3135416666666675
        },
        {
          "name": "F#3",
          "midi": 54,
          "time": 12.836458333333335,
          "velocity": 0.5669291338582677,
          "duration": 0.7427083333333329
        },
        {
          "name": "A3",
          "midi": 57,
          "time": 12.9875,
          "velocity": 0.4094488188976378,
          "duration": 0.13958333333333428
        },
        {
          "name": "A2",
          "midi": 45,
          "time": 13.115625000000001,
          "velocity": 0.5433070866141733,
          "duration": 0.8374999999999986
        },
        {
          "name": "B4",
          "midi": 71,
          "time": 13.614583333333334,
          "velocity": 0.3858267716535433,
          "duration": 0.826041666666665
        },
        {
          "name": "F#3",
          "midi": 54,
          "time": 13.71875,
          "velocity": 0.4094488188976378,
          "duration": 0.33750000000000036
        },
        {
          "name": "A1",
          "midi": 33,
          "time": 14.265625,
          "velocity": 0.4094488188976378,
          "duration": 0.10416666666666607
        },
        {
          "name": "B2",
          "midi": 47,
          "time": 14.614583333333332,
          "velocity": 0.3228346456692913,
          "duration": 0.15104166666666607
        },
        {
          "name": "F#3",
          "midi": 54,
          "time": 14.626041666666666,
          "velocity": 0.3937007874015748,
          "duration": 0.7781249999999975
        },
        {
          "name": "B1",
          "midi": 35,
          "time": 14.648958333333333,
          "velocity": 0.47244094488188976,
          "duration": 0.0927083333333325
        },
        {
          "name": "D4",
          "midi": 62,
          "time": 14.695833333333333,
          "velocity": 0.3937007874015748,
          "duration": 0.1510416666666643
        },
        {
          "name": "B1",
          "midi": 35,
          "time": 14.741666666666665,
          "velocity": 0.7165354330708661,
          "duration": 0.06979166666666536
        },
        {
          "name": "B1",
          "midi": 35,
          "time": 14.81145833333333,
          "velocity": 0.7244094488188977,
          "duration": 0.6385416666666668
        },
        {
          "name": "D4",
          "midi": 62,
          "time": 15.079166666666664,
          "velocity": 0.3779527559055118,
          "duration": 0.23229166666666679
        },
        {
          "name": "D5",
          "midi": 74,
          "time": 15.310416666666663,
          "velocity": 0.33858267716535434,
          "duration": 0.06979166666666714
        },
        {
          "name": "A1",
          "midi": 33,
          "time": 15.42708333333333,
          "velocity": 0.3700787401574803,
          "duration": 0.08125000000000071
        },
        {
          "name": "A1",
          "midi": 33,
          "time": 15.508333333333331,
          "velocity": 0.7165354330708661,
          "duration": 0.8375000000000004
        },
        {
          "name": "F#3",
          "midi": 54,
          "time": 15.659374999999997,
          "velocity": 0.44881889763779526,
          "duration": 0.33750000000000036
        },
        {
          "name": "F#3",
          "midi": 54,
          "time": 15.996874999999998,
          "velocity": 0.5511811023622047,
          "duration": 0.3020833333333339
        },
        {
          "name": "D2",
          "midi": 38,
          "time": 16.472916666666666,
          "velocity": 0.41732283464566927,
          "duration": 0.46458333333333357
        },
        {
          "name": "G1",
          "midi": 31,
          "time": 16.484375,
          "velocity": 0.6299212598425197,
          "duration": 1.6270833333333385
        },
        {
          "name": "F#3",
          "midi": 54,
          "time": 16.519791666666666,
          "velocity": 0.4409448818897638,
          "duration": 0.453125
        },
        {
          "name": "F#3",
          "midi": 54,
          "time": 17.11145833333333,
          "velocity": 0.3543307086614173,
          "duration": 0.09270833333333428
        },
        {
          "name": "D2",
          "midi": 38,
          "time": 17.169791666666665,
          "velocity": 0.3700787401574803,
          "duration": 0.173958333333335
        },
        {
          "name": "F#3",
          "midi": 54,
          "time": 17.402083333333334,
          "velocity": 0.30708661417322836,
          "duration": 0.31354166666666927
        },
        {
          "name": "A3",
          "midi": 57,
          "time": 17.530208333333334,
          "velocity": 0.3464566929133858,
          "duration": 0.173958333333335
        },
        {
          "name": "D3",
          "midi": 50,
          "time": 17.65729166666667,
          "velocity": 0.3858267716535433,
          "duration": 0.23333333333333428
        },
        {
          "name": "A3",
          "midi": 57,
          "time": 17.715625000000003,
          "velocity": 0.5118110236220472,
          "duration": 0.15104166666666785
        },
        {
          "name": "B3",
          "midi": 59,
          "time": 17.937500000000004,
          "velocity": 0.4645669291338583,
          "duration": 0.06979166666666714
        },
        {
          "name": "F#3",
          "midi": 54,
          "time": 17.96041666666667,
          "velocity": 0.3700787401574803,
          "duration": 0.13958333333333428
        },
        {
          "name": "D2",
          "midi": 38,
          "time": 18.27395833333334,
          "velocity": 0.3543307086614173,
          "duration": 0.15104166666666785
        },
        {
          "name": "G1",
          "midi": 31,
          "time": 18.285416666666674,
          "velocity": 0.6850393700787402,
          "duration": 0.9520833333333378
        },
        {
          "name": "D3",
          "midi": 50,
          "time": 18.285416666666674,
          "velocity": 0.33858267716535434,
          "duration": 0.08125000000000071
        },
        {
          "name": "B3",
          "midi": 59,
          "time": 18.35520833333334,
          "velocity": 0.41732283464566927,
          "duration": 0.16250000000000142
        },
        {
          "name": "D3",
          "midi": 50,
          "time": 18.598958333333343,
          "velocity": 0.3543307086614173,
          "duration": 0.1281250000000007
        },
        {
          "name": "B3",
          "midi": 59,
          "time": 18.75000000000001,
          "velocity": 0.3779527559055118,
          "duration": 0.10416666666666785
        },
        {
          "name": "B3",
          "midi": 59,
          "time": 18.866666666666678,
          "velocity": 0.4330708661417323,
          "duration": 0.24374999999999858
        },
        {
          "name": "B3",
          "midi": 59,
          "time": 19.110416666666676,
          "velocity": 0.4015748031496063,
          "duration": 0.06979166666666714
        },
        {
          "name": "D3",
          "midi": 50,
          "time": 19.377083333333346,
          "velocity": 0.33858267716535434,
          "duration": 0.11562500000000142
        },
        {
          "name": "G1",
          "midi": 31,
          "time": 19.38854166666668,
          "velocity": 0.5984251968503937,
          "duration": 0.5583333333333371
        },
        {
          "name": "B3",
          "midi": 59,
          "time": 19.38854166666668,
          "velocity": 0.2992125984251969,
          "duration": 0.37187500000000284
        },
        {
          "name": "D2",
          "midi": 38,
          "time": 19.481250000000014,
          "velocity": 0.4409448818897638,
          "duration": 0.09270833333333428
        },
        {
          "name": "B3",
          "midi": 59,
          "time": 19.771875000000016,
          "velocity": 0.4094488188976378,
          "duration": 0.11770833333333286
        },
        {
          "name": "G1",
          "midi": 31,
          "time": 20.12083333333335,
          "velocity": 0.6377952755905512,
          "duration": 1.660416666666677
        },
        {
          "name": "D2",
          "midi": 38,
          "time": 20.12083333333335,
          "velocity": 0.3937007874015748,
          "duration": 0.45312500000000355
        },
        {
          "name": "A3",
          "midi": 57,
          "time": 20.27187500000002,
          "velocity": 0.41732283464566927,
          "duration": 0.220833333333335
        },
        {
          "name": "A3",
          "midi": 57,
          "time": 20.492708333333354,
          "velocity": 0.3700787401574803,
          "duration": 0.5572916666666714
        },
        {
          "name": "D3",
          "midi": 50,
          "time": 20.771875000000023,
          "velocity": 0.33858267716535434,
          "duration": 0.06979166666666714
        },
        {
          "name": "D2",
          "midi": 38,
          "time": 20.783333333333356,
          "velocity": 0.36220472440944884,
          "duration": 0.08125000000000071
        },
        {
          "name": "D2",
          "midi": 38,
          "time": 20.87604166666669,
          "velocity": 0.33858267716535434,
          "duration": 0.09270833333333428
        },
        {
          "name": "A3",
          "midi": 57,
          "time": 21.178125000000026,
          "velocity": 0.4330708661417323,
          "duration": 0.19687499999999858
        },
        {
          "name": "A3",
          "midi": 57,
          "time": 21.38645833333336,
          "velocity": 0.3858267716535433,
          "duration": 0.3833333333333364
        },
        {
          "name": "D3",
          "midi": 50,
          "time": 21.397916666666692,
          "velocity": 0.36220472440944884,
          "duration": 0.16250000000000142
        },
        {
          "name": "D2",
          "midi": 38,
          "time": 21.63020833333336,
          "velocity": 0.4251968503937008,
          "duration": 0.1281250000000007
        },
        {
          "name": "B1",
          "midi": 35,
          "time": 21.94583333333336,
          "velocity": 0.7244094488188977,
          "duration": 0.8354166666666671
        },
        {
          "name": "F#2",
          "midi": 42,
          "time": 21.94583333333336,
          "velocity": 0.3700787401574803,
          "duration": 0.08125000000000071
        },
        {
          "name": "D4",
          "midi": 62,
          "time": 22.37500000000003,
          "velocity": 0.3779527559055118,
          "duration": 0.1281250000000007
        },
        {
          "name": "B3",
          "midi": 59,
          "time": 22.49062500000003,
          "velocity": 0.41732283464566927,
          "duration": 0.1510416666666643
        },
        {
          "name": "F#3",
          "midi": 54,
          "time": 22.49062500000003,
          "velocity": 0.36220472440944884,
          "duration": 0.16249999999999787
        },
        {
          "name": "A1",
          "midi": 33,
          "time": 22.700000000000028,
          "velocity": 0.4409448818897638,
          "duration": 0.06979166666666714
        },
        {
          "name": "E3",
          "midi": 52,
          "time": 22.722916666666695,
          "velocity": 0.30708661417322836,
          "duration": 0.41770833333333357
        },
        {
          "name": "A1",
          "midi": 33,
          "time": 22.769791666666695,
          "velocity": 0.7165354330708661,
          "duration": 0.8822916666666707
        },
        {
          "name": "F#3",
          "midi": 54,
          "time": 22.804166666666696,
          "velocity": 0.3858267716535433,
          "duration": 0.3135416666666657
        },
        {
          "name": "A3",
          "midi": 57,
          "time": 23.08333333333336,
          "velocity": 0.31496062992125984,
          "duration": 0.08125000000000071
        },
        {
          "name": "E3",
          "midi": 52,
          "time": 23.26875000000003,
          "velocity": 0.3228346456692913,
          "duration": 0.06979166666666714
        },
        {
          "name": "F#3",
          "midi": 54,
          "time": 23.31562500000003,
          "velocity": 0.4566929133858268,
          "duration": 0.23229166666666856
        },
        {
          "name": "E3",
          "midi": 52,
          "time": 23.501041666666698,
          "velocity": 0.33858267716535434,
          "duration": 0.06979166666666714
        },
        {
          "name": "G1",
          "midi": 31,
          "time": 23.767708333333367,
          "velocity": 0.6377952755905512,
          "duration": 0.4656249999999993
        },
        {
          "name": "D2",
          "midi": 38,
          "time": 23.780208333333366,
          "velocity": 0.4645669291338583,
          "duration": 0.4656249999999993
        },
        {
          "name": "F#3",
          "midi": 54,
          "time": 23.8260416666667,
          "velocity": 0.3779527559055118,
          "duration": 0.21041666666666714
        },
        {
          "name": "A3",
          "midi": 57,
          "time": 23.920833333333366,
          "velocity": 0.4015748031496063,
          "duration": 0.09270833333333428
        },
        {
          "name": "G1",
          "midi": 31,
          "time": 24.396875000000033,
          "velocity": 0.6850393700787402,
          "duration": 0.9989583333333378
        },
        {
          "name": "B3",
          "midi": 59,
          "time": 24.408333333333367,
          "velocity": 0.4251968503937008,
          "duration": 0.11562500000000142
        },
        {
          "name": "D2",
          "midi": 38,
          "time": 24.4197916666667,
          "velocity": 0.3700787401574803,
          "duration": 0.16250000000000142
        },
        {
          "name": "F#3",
          "midi": 54,
          "time": 24.65208333333337,
          "velocity": 0.3700787401574803,
          "duration": 0.3718749999999993
        },
        {
          "name": "A3",
          "midi": 57,
          "time": 24.721875000000036,
          "velocity": 0.28346456692913385,
          "duration": 0.2906249999999986
        },
        {
          "name": "D3",
          "midi": 50,
          "time": 24.918750000000035,
          "velocity": 0.3228346456692913,
          "duration": 0.2552083333333357
        },
        {
          "name": "A3",
          "midi": 57,
          "time": 25.01145833333337,
          "velocity": 0.4251968503937008,
          "duration": 0.1281250000000007
        },
        {
          "name": "D2",
          "midi": 38,
          "time": 25.197916666666703,
          "velocity": 0.4094488188976378,
          "duration": 0.06979166666666714
        },
        {
          "name": "B3",
          "midi": 59,
          "time": 25.22083333333337,
          "velocity": 0.3937007874015748,
          "duration": 0.06979166666666714
        },
        {
          "name": "F#3",
          "midi": 54,
          "time": 25.243750000000038,
          "velocity": 0.31496062992125984,
          "duration": 0.09270833333333428
        },
        {
          "name": "D2",
          "midi": 38,
          "time": 25.279166666666704,
          "velocity": 0.3937007874015748,
          "duration": 0.08125000000000071
        },
        {
          "name": "G1",
          "midi": 31,
          "time": 25.58020833333337,
          "velocity": 0.6850393700787402,
          "duration": 0.9416666666666735
        },
        {
          "name": "D2",
          "midi": 38,
          "time": 25.58020833333337,
          "velocity": 0.3700787401574803,
          "duration": 0.13958333333333428
        },
        {
          "name": "B3",
          "midi": 59,
          "time": 25.650000000000038,
          "velocity": 0.4409448818897638,
          "duration": 0.1875
        },
        {
          "name": "F#3",
          "midi": 54,
          "time": 26.011458333333373,
          "velocity": 0.3779527559055118,
          "duration": 0.09270833333333428
        },
        {
          "name": "B3",
          "midi": 59,
          "time": 26.104166666666707,
          "velocity": 0.5433070866141733,
          "duration": 0.220833333333335
        },
        {
          "name": "F#3",
          "midi": 54,
          "time": 26.359375000000043,
          "velocity": 0.30708661417322836,
          "duration": 0.173958333333335
        },
        {
          "name": "E4",
          "midi": 64,
          "time": 26.603125000000045,
          "velocity": 0.36220472440944884,
          "duration": 0.20937500000000142
        },
        {
          "name": "G1",
          "midi": 31,
          "time": 26.70833333333338,
          "velocity": 0.6614173228346457,
          "duration": 0.5572916666666714
        },
        {
          "name": "B3",
          "midi": 59,
          "time": 26.70833333333338,
          "velocity": 0.3779527559055118,
          "duration": 0.5343750000000043
        },
        {
          "name": "D2",
          "midi": 38,
          "time": 26.719791666666712,
          "velocity": 0.3937007874015748,
          "duration": 0.09270833333333428
        },
        {
          "name": "F#3",
          "midi": 54,
          "time": 26.835416666666713,
          "velocity": 0.4330708661417323,
          "duration": 0.20937500000000142
        },
        {
          "name": "B4",
          "midi": 71,
          "time": 26.893750000000047,
          "velocity": 0.28346456692913385,
          "duration": 0.15104166666666785
        },
        {
          "name": "B4",
          "midi": 71,
          "time": 27.05625000000005,
          "velocity": 0.3464566929133858,
          "duration": 0.09270833333333428
        },
        {
          "name": "C#4",
          "midi": 61,
          "time": 27.369791666666718,
          "velocity": 0.3700787401574803,
          "duration": 0.11562500000000142
        },
        {
          "name": "E3",
          "midi": 52,
          "time": 27.38125000000005,
          "velocity": 0.31496062992125984,
          "duration": 0.7322916666666686
        },
        {
          "name": "A1",
          "midi": 33,
          "time": 27.40416666666672,
          "velocity": 0.7086614173228346,
          "duration": 0.40625000000000355
        },
        {
          "name": "A3",
          "midi": 57,
          "time": 27.57916666666672,
          "velocity": 0.3700787401574803,
          "duration": 0.9416666666666664
        },
        {
          "name": "F#3",
          "midi": 54,
          "time": 27.590625000000053,
          "velocity": 0.3464566929133858,
          "duration": 0.13958333333333428
        },
        {
          "name": "A1",
          "midi": 33,
          "time": 27.811458333333388,
          "velocity": 0.5118110236220472,
          "duration": 0.10624999999999929
        },
        {
          "name": "D2",
          "midi": 38,
          "time": 27.812500000000053,
          "velocity": 0.30708661417322836,
          "duration": 0.06979166666666714
        },
        {
          "name": "A1",
          "midi": 33,
          "time": 28.148958333333386,
          "velocity": 0.6535433070866141,
          "duration": 0.1281250000000007
        },
        {
          "name": "F#3",
          "midi": 54,
          "time": 28.195833333333386,
          "velocity": 0.31496062992125984,
          "duration": 0.08125000000000071
        },
        {
          "name": "A1",
          "midi": 33,
          "time": 28.277083333333387,
          "velocity": 0.7559055118110236,
          "duration": 0.7895833333333364
        },
        {
          "name": "F#3",
          "midi": 54,
          "time": 28.427083333333385,
          "velocity": 0.33858267716535434,
          "duration": 0.08125000000000071
        },
        {
          "name": "A3",
          "midi": 57,
          "time": 28.520833333333385,
          "velocity": 0.36220472440944884,
          "duration": 0.09270833333333428
        },
        {
          "name": "E3",
          "midi": 52,
          "time": 28.56666666666672,
          "velocity": 0.3464566929133858,
          "duration": 0.4177083333333371
        },
        {
          "name": "B4",
          "midi": 71,
          "time": 28.671875000000053,
          "velocity": 0.36220472440944884,
          "duration": 0.08125000000000071
        },
        {
          "name": "F#3",
          "midi": 54,
          "time": 28.857291666666722,
          "velocity": 0.3543307086614173,
          "duration": 0.16250000000000142
        },
        {
          "name": "F#3",
          "midi": 54,
          "time": 29.182291666666725,
          "velocity": 0.3700787401574803,
          "duration": 0.15104166666666785
        },
        {
          "name": "B1",
          "midi": 35,
          "time": 29.205208333333392,
          "velocity": 0.6456692913385826,
          "duration": 0.1281250000000007
        },
        {
          "name": "F#2",
          "midi": 42,
          "time": 29.216666666666725,
          "velocity": 0.33858267716535434,
          "duration": 0.10416666666666785
        },
        {
          "name": "B1",
          "midi": 35,
          "time": 29.333333333333393,
          "velocity": 0.7401574803149606,
          "duration": 0.6979166666666679
        },
        {
          "name": "D4",
          "midi": 62,
          "time": 29.426041666666727,
          "velocity": 0.4881889763779528,
          "duration": 0.39583333333333215
        },
        {
          "name": "F#3",
          "midi": 54,
          "time": 29.611458333333392,
          "velocity": 0.3937007874015748,
          "duration": 0.38437500000000213
        },
        {
          "name": "A1",
          "midi": 33,
          "time": 29.98437500000006,
          "velocity": 0.4566929133858268,
          "duration": 0.08125000000000071
        },
        {
          "name": "F#3",
          "midi": 54,
          "time": 30.008333333333393,
          "velocity": 0.44881889763779526,
          "duration": 0.32500000000000284
        },
        {
          "name": "C#4",
          "midi": 61,
          "time": 30.03125000000006,
          "velocity": 0.4251968503937008,
          "duration": 0.3364583333333364
        },
        {
          "name": "A1",
          "midi": 33,
          "time": 30.06562500000006,
          "velocity": 0.7559055118110236,
          "duration": 0.8354166666666707
        },
        {
          "name": "F#3",
          "midi": 54,
          "time": 30.46041666666673,
          "velocity": 0.47244094488188976,
          "duration": 0.30208333333333215
        },
        {
          "name": "A3",
          "midi": 57,
          "time": 30.70416666666673,
          "velocity": 0.4015748031496063,
          "duration": 0.09270833333333428
        },
        {
          "name": "A3",
          "midi": 57,
          "time": 30.959375000000065,
          "velocity": 0.4015748031496063,
          "duration": 0.5458333333333378
        },
        {
          "name": "F#3",
          "midi": 54,
          "time": 30.971875000000065,
          "velocity": 0.4409448818897638,
          "duration": 0.4760416666666707
        },
        {
          "name": "D3",
          "midi": 50,
          "time": 30.994791666666732,
          "velocity": 0.33070866141732286,
          "duration": 0.06979166666666714
        },
        {
          "name": "D2",
          "midi": 38,
          "time": 31.029166666666733,
          "velocity": 0.5354330708661418,
          "duration": 0.13958333333333428
        },
        {
          "name": "G1",
          "midi": 31,
          "time": 31.029166666666733,
          "velocity": 0.6614173228346457,
          "duration": 1.6385416666666757
        },
        {
          "name": "D2",
          "midi": 38,
          "time": 31.296875000000068,
          "velocity": 0.4566929133858268,
          "duration": 0.220833333333335
        },
        {
          "name": "D3",
          "midi": 50,
          "time": 31.401041666666735,
          "velocity": 0.3228346456692913,
          "duration": 0.11562500000000142
        },
        {
          "name": "D2",
          "midi": 38,
          "time": 31.785416666666737,
          "velocity": 0.3700787401574803,
          "duration": 0.11562500000000142
        },
        {
          "name": "A3",
          "midi": 57,
          "time": 32.23854166666674,
          "velocity": 0.4015748031496063,
          "duration": 0.2666666666666657
        },
        {
          "name": "D2",
          "midi": 38,
          "time": 32.45833333333341,
          "velocity": 0.4015748031496063,
          "duration": 0.12812499999999716
        },
        {
          "name": "A4",
          "midi": 69,
          "time": 32.55208333333341,
          "velocity": 0.3228346456692913,
          "duration": 0.06979166666666714
        },
        {
          "name": "D3",
          "midi": 50,
          "time": 32.56354166666674,
          "velocity": 0.3464566929133858,
          "duration": 0.08125000000000426
        },
        {
          "name": "D3",
          "midi": 50,
          "time": 32.81875000000007,
          "velocity": 0.3700787401574803,
          "duration": 0.12812499999999005
        },
        {
          "name": "F#3",
          "midi": 54,
          "time": 32.8302083333334,
          "velocity": 0.41732283464566927,
          "duration": 0.7197916666666444
        },
        {
          "name": "D2",
          "midi": 38,
          "time": 32.8302083333334,
          "velocity": 0.4094488188976378,
          "duration": 0.23229166666666146
        },
        {
          "name": "B3",
          "midi": 59,
          "time": 32.8770833333334,
          "velocity": 0.41732283464566927,
          "duration": 0.2666666666666586
        },
        {
          "name": "G1",
          "midi": 31,
          "time": 32.88854166666673,
          "velocity": 0.6850393700787402,
          "duration": 0.8947916666666487
        },
        {
          "name": "C#5",
          "midi": 73,
          "time": 33.22500000000006,
          "velocity": 0.3779527559055118,
          "duration": 0.18541666666666146
        },
        {
          "name": "B3",
          "midi": 59,
          "time": 33.36458333333339,
          "velocity": 0.3700787401574803,
          "duration": 0.12812499999999005
        },
        {
          "name": "D3",
          "midi": 50,
          "time": 33.37604166666672,
          "velocity": 0.33858267716535434,
          "duration": 0.09270833333332718
        },
        {
          "name": "F#3",
          "midi": 54,
          "time": 33.922916666666715,
          "velocity": 0.3464566929133858,
          "duration": 0.11562499999999432
        },
        {
          "name": "G1",
          "midi": 31,
          "time": 33.95729166666671,
          "velocity": 0.6771653543307087,
          "duration": 0.5229166666666671
        },
        {
          "name": "D2",
          "midi": 38,
          "time": 33.95729166666671,
          "velocity": 0.4330708661417323,
          "duration": 0.3604166666666657
        },
        {
          "name": "F#4",
          "midi": 66,
          "time": 34.10833333333338,
          "velocity": 0.33070866141732286,
          "duration": 0.18541666666666856
        },
        {
          "name": "B3",
          "midi": 59,
          "time": 34.14375000000005,
          "velocity": 0.33070866141732286,
          "duration": 0.09270833333333428
        },
        {
          "name": "D2",
          "midi": 38,
          "time": 34.32916666666671,
          "velocity": 0.47244094488188976,
          "duration": 0.11562500000000142
        },
        {
          "name": "F#3",
          "midi": 54,
          "time": 34.64270833333338,
          "velocity": 0.3228346456692913,
          "duration": 0.46458333333333
        },
        {
          "name": "D2",
          "midi": 38,
          "time": 34.72395833333338,
          "velocity": 0.41732283464566927,
          "duration": 0.3947916666666629
        },
        {
          "name": "G1",
          "midi": 31,
          "time": 34.72395833333338,
          "velocity": 0.6614173228346457,
          "duration": 1.6031249999999915
        },
        {
          "name": "A3",
          "midi": 57,
          "time": 34.73541666666671,
          "velocity": 0.33070866141732286,
          "duration": 0.27812500000000284
        },
        {
          "name": "E4",
          "midi": 64,
          "time": 34.77083333333338,
          "velocity": 0.3937007874015748,
          "duration": 0.38333333333333286
        },
        {
          "name": "A3",
          "midi": 57,
          "time": 35.57187500000004,
          "velocity": 0.33070866141732286,
          "duration": 0.06979166666666714
        },
        {
          "name": "D2",
          "midi": 38,
          "time": 36.15312500000004,
          "velocity": 0.4094488188976378,
          "duration": 0.09270833333333428
        },
        {
          "name": "B2",
          "midi": 47,
          "time": 36.42083333333337,
          "velocity": 0.4015748031496063,
          "duration": 0.24374999999999858
        },
        {
          "name": "B1",
          "midi": 35,
          "time": 36.513541666666704,
          "velocity": 0.6850393700787402,
          "duration": 0.12812499999999716
        },
        {
          "name": "B1",
          "midi": 35,
          "time": 36.640625000000036,
          "velocity": 0.6850393700787402,
          "duration": 0.7197916666666728
        },
        {
          "name": "D4",
          "midi": 62,
          "time": 36.919791666666704,
          "velocity": 0.3858267716535433,
          "duration": 0.16250000000000142
        },
        {
          "name": "F#3",
          "midi": 54,
          "time": 37.082291666666706,
          "velocity": 0.3779527559055118,
          "duration": 0.13958333333333428
        },
        {
          "name": "A1",
          "midi": 33,
          "time": 37.22187500000004,
          "velocity": 0.4566929133858268,
          "duration": 0.08125000000000426
        },
        {
          "name": "E3",
          "midi": 52,
          "time": 37.24479166666671,
          "velocity": 0.30708661417322836,
          "duration": 0.16250000000000142
        },
        {
          "name": "F#3",
          "midi": 54,
          "time": 37.267708333333374,
          "velocity": 0.30708661417322836,
          "duration": 0.11562500000000142
        },
        {
          "name": "A1",
          "midi": 33,
          "time": 37.314583333333374,
          "velocity": 0.7165354330708661,
          "duration": 0.8604166666666586
        },
        {
          "name": "C#4",
          "midi": 61,
          "time": 37.51145833333337,
          "velocity": 0.3543307086614173,
          "duration": 0.16249999999999432
        },
        {
          "name": "F#3",
          "midi": 54,
          "time": 37.5697916666667,
          "velocity": 0.4015748031496063,
          "duration": 0.16249999999999432
        },
        {
          "name": "E2",
          "midi": 40,
          "time": 37.9885416666667,
          "velocity": 0.3543307086614173,
          "duration": 0.09270833333333428
        },
        {
          "name": "F#3",
          "midi": 54,
          "time": 38.25625000000003,
          "velocity": 0.33070866141732286,
          "duration": 0.1041666666666643
        },
        {
          "name": "G1",
          "midi": 31,
          "time": 38.302083333333364,
          "velocity": 0.6299212598425197,
          "duration": 2.5322916666666586
        },
        {
          "name": "D2",
          "midi": 38,
          "time": 38.3260416666667,
          "velocity": 0.3858267716535433,
          "duration": 0.42916666666666003
        },
        {
          "name": "A3",
          "midi": 57,
          "time": 38.54583333333336,
          "velocity": 0.3543307086614173,
          "duration": 0.22083333333332433
        },
        {
          "name": "F#3",
          "midi": 54,
          "time": 38.69687500000003,
          "velocity": 0.36220472440944884,
          "duration": 0.08124999999999005
        },
        {
          "name": "D3",
          "midi": 50,
          "time": 39.81354166666669,
          "velocity": 0.33858267716535434,
          "duration": 0.08124999999999716
        },
        {
          "name": "B3",
          "midi": 59,
          "time": 40.010416666666686,
          "velocity": 0.33858267716535434,
          "duration": 0.3604166666666657
        },
        {
          "name": "F#3",
          "midi": 54,
          "time": 40.021875000000016,
          "velocity": 0.33070866141732286,
          "duration": 0.5104166666666714
        },
        {
          "name": "B3",
          "midi": 59,
          "time": 40.78854166666669,
          "velocity": 0.31496062992125984,
          "duration": 0.08125000000000426
        },
        {
          "name": "A4",
          "midi": 69,
          "time": 41.11354166666669,
          "velocity": 0.33858267716535434,
          "duration": 0.06979166666666714
        },
        {
          "name": "F#3",
          "midi": 54,
          "time": 41.31041666666669,
          "velocity": 0.3937007874015748,
          "duration": 0.2906249999999986
        },
        {
          "name": "C#3",
          "midi": 49,
          "time": 41.403125000000024,
          "velocity": 0.3858267716535433,
          "duration": 0.1041666666666643
        },
        {
          "name": "G2",
          "midi": 43,
          "time": 41.403125000000024,
          "velocity": 0.36220472440944884,
          "duration": 0.1041666666666643
        },
        {
          "name": "F#3",
          "midi": 54,
          "time": 41.811458333333356,
          "velocity": 0.6062992125984252,
          "duration": 0.13958333333332718
        },
        {
          "name": "A3",
          "midi": 57,
          "time": 41.822916666666686,
          "velocity": 0.4094488188976378,
          "duration": 0.37187499999999574
        },
        {
          "name": "A2",
          "midi": 45,
          "time": 41.822916666666686,
          "velocity": 0.49606299212598426,
          "duration": 0.5916666666666615
        },
        {
          "name": "D4",
          "midi": 62,
          "time": 41.89270833333335,
          "velocity": 0.44881889763779526,
          "duration": 0.19687499999999858
        },
        {
          "name": "F#3",
          "midi": 54,
          "time": 41.95104166666668,
          "velocity": 0.5511811023622047,
          "duration": 0.38333333333333286
        },
        {
          "name": "A3",
          "midi": 57,
          "time": 42.19479166666668,
          "velocity": 0.3779527559055118,
          "duration": 0.20937500000000142
        },
        {
          "name": "F#3",
          "midi": 54,
          "time": 42.33333333333335,
          "velocity": 0.4330708661417323,
          "duration": 0.1041666666666643
        },
        {
          "name": "E4",
          "midi": 64,
          "time": 42.36875000000001,
          "velocity": 0.29133858267716534,
          "duration": 0.18541666666666856
        },
        {
          "name": "A2",
          "midi": 45,
          "time": 42.41458333333335,
          "velocity": 0.5275590551181102,
          "duration": 0.5229166666666671
        },
        {
          "name": "F#3",
          "midi": 54,
          "time": 42.43854166666668,
          "velocity": 0.48031496062992124,
          "duration": 0.37187500000000284
        },
        {
          "name": "D5",
          "midi": 74,
          "time": 42.926041666666684,
          "velocity": 0.30708661417322836,
          "duration": 0.06979166666666003
        },
        {
          "name": "F#3",
          "midi": 54,
          "time": 43.122916666666676,
          "velocity": 0.3464566929133858,
          "duration": 0.16250000000000142
        },
        {
          "name": "B2",
          "midi": 47,
          "time": 43.705208333333346,
          "velocity": 0.33070866141732286,
          "duration": 0.09270833333332718
        },
        {
          "name": "F#3",
          "midi": 54,
          "time": 43.73958333333334,
          "velocity": 0.28346456692913385,
          "duration": 0.20937499999999432
        },
        {
          "name": "B1",
          "midi": 35,
          "time": 43.763541666666676,
          "velocity": 0.3228346456692913,
          "duration": 0.1041666666666643
        },
        {
          "name": "D4",
          "midi": 62,
          "time": 43.79791666666667,
          "velocity": 0.3543307086614173,
          "duration": 0.1041666666666643
        },
        {
          "name": "B1",
          "midi": 35,
          "time": 43.86770833333334,
          "velocity": 0.5984251968503937,
          "duration": 0.08124999999999716
        },
        {
          "name": "D5",
          "midi": 74,
          "time": 43.93750000000001,
          "velocity": 0.3228346456692913,
          "duration": 0.08124999999999716
        },
        {
          "name": "B1",
          "midi": 35,
          "time": 43.94895833333334,
          "velocity": 0.7322834645669292,
          "duration": 0.1510416666666643
        },
        {
          "name": "F#3",
          "midi": 54,
          "time": 44.07604166666667,
          "velocity": 0.3228346456692913,
          "duration": 0.4177083333333371
        },
        {
          "name": "B1",
          "midi": 35,
          "time": 44.1,
          "velocity": 0.7716535433070866,
          "duration": 0.13958333333333428
        },
        {
          "name": "D4",
          "midi": 62,
          "time": 44.192708333333336,
          "velocity": 0.49606299212598426,
          "duration": 0.20937500000000142
        },
        {
          "name": "B1",
          "midi": 35,
          "time": 44.23854166666667,
          "velocity": 0.4015748031496063,
          "duration": 0.48750000000000426
        },
        {
          "name": "A1",
          "midi": 33,
          "time": 44.50625000000001,
          "velocity": 0.6456692913385826,
          "duration": 0.9291666666666671
        },
        {
          "name": "E3",
          "midi": 52,
          "time": 44.587500000000006,
          "velocity": 0.31496062992125984,
          "duration": 0.06979166666666714
        },
        {
          "name": "F#3",
          "midi": 54,
          "time": 44.68020833333334,
          "velocity": 0.5039370078740157,
          "duration": 0.7312500000000028
        },
        {
          "name": "G1",
          "midi": 31,
          "time": 45.55104166666668,
          "velocity": 0.6062992125984252,
          "duration": 0.47708333333332575
        },
        {
          "name": "D2",
          "midi": 38,
          "time": 45.632291666666674,
          "velocity": 0.33858267716535434,
          "duration": 0.08229166666666288
        },
        {
          "name": "F#3",
          "midi": 54,
          "time": 45.65520833333334,
          "velocity": 0.44881889763779526,
          "duration": 0.3958333333333286
        },
        {
          "name": "A3",
          "midi": 57,
          "time": 45.70312500000001,
          "velocity": 0.3700787401574803,
          "duration": 0.1510416666666643
        },
        {
          "name": "F#3",
          "midi": 54,
          "time": 46.202083333333334,
          "velocity": 0.3779527559055118,
          "duration": 0.08124999999999716
        },
        {
          "name": "G1",
          "midi": 31,
          "time": 46.353125,
          "velocity": 0.6299212598425197,
          "duration": 0.7427083333333186
        },
        {
          "name": "F#3",
          "midi": 54,
          "time": 46.45833333333333,
          "velocity": 0.4409448818897638,
          "duration": 0.33645833333332575
        },
        {
          "name": "A3",
          "midi": 57,
          "time": 46.60833333333333,
          "velocity": 0.36220472440944884,
          "duration": 0.12812499999999716
        },
        {
          "name": "A3",
          "midi": 57,
          "time": 46.794791666666654,
          "velocity": 0.28346456692913385,
          "duration": 0.09270833333333428
        },
        {
          "name": "A3",
          "midi": 57,
          "time": 46.88749999999999,
          "velocity": 0.4015748031496063,
          "duration": 0.09270833333333428
        },
        {
          "name": "F#3",
          "midi": 54,
          "time": 47.06145833333332,
          "velocity": 0.4330708661417323,
          "duration": 0.1510416666666643
        },
        {
          "name": "G1",
          "midi": 31,
          "time": 47.49062499999999,
          "velocity": 0.4015748031496063,
          "duration": 0.06979166666666714
        },
        {
          "name": "B3",
          "midi": 59,
          "time": 47.52604166666666,
          "velocity": 0.2992125984251969,
          "duration": 0.10416666666665719
        },
        {
          "name": "G1",
          "midi": 31,
          "time": 47.571874999999984,
          "velocity": 0.5984251968503937,
          "duration": 1.44062499999999
        },
        {
          "name": "F#3",
          "midi": 54,
          "time": 47.770833333333314,
          "velocity": 0.3543307086614173,
          "duration": 0.1510416666666714
        },
        {
          "name": "A3",
          "midi": 57,
          "time": 47.79374999999998,
          "velocity": 0.3779527559055118,
          "duration": 0.09270833333333428
        },
        {
          "name": "B3",
          "midi": 59,
          "time": 47.94479166666665,
          "velocity": 0.5275590551181102,
          "duration": 0.17395833333333144
        },
        {
          "name": "C#4",
          "midi": 61,
          "time": 48.18854166666665,
          "velocity": 0.4094488188976378,
          "duration": 0.12812499999999716
        },
        {
          "name": "F#3",
          "midi": 54,
          "time": 48.18854166666665,
          "velocity": 0.2677165354330709,
          "duration": 0.08124999999999716
        },
        {
          "name": "F#3",
          "midi": 54,
          "time": 48.677083333333314,
          "velocity": 0.31496062992125984,
          "duration": 0.27812499999999574
        },
        {
          "name": "B3",
          "midi": 59,
          "time": 48.78124999999998,
          "velocity": 0.4094488188976378,
          "duration": 0.18541666666666146
        },
        {
          "name": "G2",
          "midi": 43,
          "time": 49.37291666666664,
          "velocity": 0.33070866141732286,
          "duration": 0.08124999999999716
        },
        {
          "name": "G1",
          "midi": 31,
          "time": 49.37291666666664,
          "velocity": 0.41732283464566927,
          "duration": 0.08124999999999716
        },
        {
          "name": "A3",
          "midi": 57,
          "time": 49.38437499999997,
          "velocity": 0.4251968503937008,
          "duration": 0.17395833333333144
        },
        {
          "name": "G1",
          "midi": 31,
          "time": 49.46562499999997,
          "velocity": 0.5039370078740157,
          "duration": 0.1510416666666643
        },
        {
          "name": "A3",
          "midi": 57,
          "time": 49.55937499999997,
          "velocity": 0.4015748031496063,
          "duration": 0.3843749999999986
        },
        {
          "name": "A3",
          "midi": 57,
          "time": 49.943749999999966,
          "velocity": 0.33070866141732286,
          "duration": 0.17395833333333144
        },
        {
          "name": "G1",
          "midi": 31,
          "time": 49.943749999999966,
          "velocity": 0.6299212598425197,
          "duration": 0.8124999999999929
        },
        {
          "name": "A3",
          "midi": 57,
          "time": 50.25729166666663,
          "velocity": 0.3937007874015748,
          "duration": 0.1510416666666643
        },
        {
          "name": "A3",
          "midi": 57,
          "time": 50.419791666666626,
          "velocity": 0.47244094488188976,
          "duration": 0.18541666666666856
        },
        {
          "name": "B1",
          "midi": 35,
          "time": 51.10416666666663,
          "velocity": 0.6456692913385826,
          "duration": 0.1041666666666643
        },
        {
          "name": "B1",
          "midi": 35,
          "time": 51.20937499999996,
          "velocity": 0.5984251968503937,
          "duration": 0.8718750000000028
        },
        {
          "name": "E3",
          "midi": 52,
          "time": 51.84895833333329,
          "velocity": 0.4094488188976378,
          "duration": 0.09270833333333428
        },
        {
          "name": "A1",
          "midi": 33,
          "time": 51.87187499999996,
          "velocity": 0.6929133858267716,
          "duration": 0.7666666666666657
        },
        {
          "name": "F#3",
          "midi": 54,
          "time": 51.89479166666663,
          "velocity": 0.36220472440944884,
          "duration": 0.2906249999999986
        },
        {
          "name": "F#3",
          "midi": 54,
          "time": 52.370833333333294,
          "velocity": 0.41732283464566927,
          "duration": 0.2906249999999915
        },
        {
          "name": "A2",
          "midi": 45,
          "time": 52.55729166666663,
          "velocity": 0.41732283464566927,
          "duration": 0.09270833333332718
        },
        {
          "name": "D2",
          "midi": 38,
          "time": 52.88229166666662,
          "velocity": 0.31496062992125984,
          "duration": 0.13958333333332718
        },
        {
          "name": "G1",
          "midi": 31,
          "time": 52.89374999999995,
          "velocity": 0.6141732283464567,
          "duration": 0.44166666666667
        },
        {
          "name": "F#3",
          "midi": 54,
          "time": 52.93958333333328,
          "velocity": 0.2677165354330709,
          "duration": 0.17395833333333144
        },
        {
          "name": "A3",
          "midi": 57,
          "time": 53.02083333333328,
          "velocity": 0.3464566929133858,
          "duration": 0.23229166666666856
        },
        {
          "name": "G1",
          "midi": 31,
          "time": 53.63645833333329,
          "velocity": 0.44881889763779526,
          "duration": 0.10625000000000284
        },
        {
          "name": "G1",
          "midi": 31,
          "time": 53.75416666666662,
          "velocity": 0.6062992125984252,
          "duration": 0.6729166666666657
        },
        {
          "name": "A3",
          "midi": 57,
          "time": 53.858333333333285,
          "velocity": 0.4015748031496063,
          "duration": 0.4062500000000071
        },
        {
          "name": "F#3",
          "midi": 54,
          "time": 53.893749999999955,
          "velocity": 0.3464566929133858,
          "duration": 0.18541666666666856
        },
        {
          "name": "F#3",
          "midi": 54,
          "time": 54.34583333333329,
          "velocity": 0.3858267716535433,
          "duration": 0.11562499999999432
        },
        {
          "name": "G1",
          "midi": 31,
          "time": 54.670833333333285,
          "velocity": 0.6692913385826772,
          "duration": 0.8593749999999858
        },
        {
          "name": "B3",
          "midi": 59,
          "time": 54.764583333333285,
          "velocity": 0.47244094488188976,
          "duration": 0.18541666666666856
        },
        {
          "name": "F#3",
          "midi": 54,
          "time": 55.05416666666662,
          "velocity": 0.3543307086614173,
          "duration": 0.1041666666666643
        },
        {
          "name": "B3",
          "midi": 59,
          "time": 55.20520833333328,
          "velocity": 0.5669291338582677,
          "duration": 0.19687499999999858
        },
        {
          "name": "F#3",
          "midi": 54,
          "time": 55.46041666666661,
          "velocity": 0.25196850393700787,
          "duration": 0.1624999999999872
        },
        {
          "name": "B1",
          "midi": 35,
          "time": 55.51874999999994,
          "velocity": 0.2992125984251969,
          "duration": 0.06979166666666003
        },
        {
          "name": "G1",
          "midi": 31,
          "time": 55.78749999999993,
          "velocity": 0.5905511811023622,
          "duration": 0.5458333333333272
        },
        {
          "name": "F#3",
          "midi": 54,
          "time": 55.9260416666666,
          "velocity": 0.4330708661417323,
          "duration": 0.20937499999999432
        },
        {
          "name": "B3",
          "midi": 59,
          "time": 56.054166666666596,
          "velocity": 0.4094488188976378,
          "duration": 0.06979166666666714
        },
        {
          "name": "B3",
          "midi": 59,
          "time": 56.13541666666659,
          "velocity": 0.48031496062992124,
          "duration": 0.19687499999999858
        },
        {
          "name": "A1",
          "midi": 33,
          "time": 56.483333333333256,
          "velocity": 0.6456692913385826,
          "duration": 0.48749999999999005
        },
        {
          "name": "A3",
          "midi": 57,
          "time": 56.61145833333325,
          "velocity": 0.4251968503937008,
          "duration": 0.22083333333333144
        },
        {
          "name": "F#3",
          "midi": 54,
          "time": 56.63437499999992,
          "velocity": 0.4251968503937008,
          "duration": 0.27812499999999574
        },
        {
          "name": "A2",
          "midi": 45,
          "time": 56.773958333333255,
          "velocity": 0.4645669291338583,
          "duration": 0.13958333333332718
        },
        {
          "name": "A3",
          "midi": 57,
          "time": 56.832291666666585,
          "velocity": 0.4409448818897638,
          "duration": 0.5802083333333314
        },
        {
          "name": "A2",
          "midi": 45,
          "time": 56.92499999999991,
          "velocity": 0.4566929133858268,
          "duration": 0.09270833333333428
        },
        {
          "name": "A1",
          "midi": 33,
          "time": 57.18020833333325,
          "velocity": 0.6377952755905512,
          "duration": 0.8718749999999886
        },
        {
          "name": "F#3",
          "midi": 54,
          "time": 57.296874999999915,
          "velocity": 0.41732283464566927,
          "duration": 0.09270833333333428
        },
        {
          "name": "F#3",
          "midi": 54,
          "time": 57.54062499999991,
          "velocity": 0.3858267716535433,
          "duration": 0.23333333333332718
        },
        {
          "name": "A3",
          "midi": 57,
          "time": 57.70416666666658,
          "velocity": 0.4330708661417323,
          "duration": 0.18541666666666146
        },
        {
          "name": "E4",
          "midi": 64,
          "time": 57.71562499999991,
          "velocity": 0.41732283464566927,
          "duration": 0.3604166666666586
        },
        {
          "name": "A2",
          "midi": 45,
          "time": 57.819791666666575,
          "velocity": 0.3464566929133858,
          "duration": 0.22083333333333144
        },
        {
          "name": "F#3",
          "midi": 54,
          "time": 57.993749999999906,
          "velocity": 0.3779527559055118,
          "duration": 0.12812499999999005
        },
        {
          "name": "A3",
          "midi": 57,
          "time": 58.01770833333324,
          "velocity": 0.3937007874015748,
          "duration": 0.09270833333332718
        },
        {
          "name": "A2",
          "midi": 45,
          "time": 58.052083333333236,
          "velocity": 0.4645669291338583,
          "duration": 0.06979166666666003
        },
        {
          "name": "D4",
          "midi": 62,
          "time": 58.3312499999999,
          "velocity": 0.4094488188976378,
          "duration": 0.16249999999999432
        },
        {
          "name": "B1",
          "midi": 35,
          "time": 58.354166666666565,
          "velocity": 0.48031496062992124,
          "duration": 0.08124999999999716
        },
        {
          "name": "B1",
          "midi": 35,
          "time": 58.44687499999989,
          "velocity": 0.6614173228346457,
          "duration": 0.6041666666666643
        },
        {
          "name": "A1",
          "midi": 33,
          "time": 59.09687499999989,
          "velocity": 0.6456692913385826,
          "duration": 0.8374999999999915
        },
        {
          "name": "C#4",
          "midi": 61,
          "time": 59.10833333333322,
          "velocity": 0.3858267716535433,
          "duration": 0.1041666666666643
        },
        {
          "name": "F#3",
          "midi": 54,
          "time": 59.306249999999885,
          "velocity": 0.3937007874015748,
          "duration": 0.6510416666666643
        },
        {
          "name": "G1",
          "midi": 31,
          "time": 60.11979166666655,
          "velocity": 0.6062992125984252,
          "duration": 0.41770833333333
        },
        {
          "name": "D2",
          "midi": 38,
          "time": 60.13124999999988,
          "velocity": 0.3937007874015748,
          "duration": 0.17395833333333144
        },
        {
          "name": "F#3",
          "midi": 54,
          "time": 60.329166666666545,
          "velocity": 0.41732283464566927,
          "duration": 0.13958333333333428
        },
        {
          "name": "A3",
          "midi": 57,
          "time": 60.340624999999875,
          "velocity": 0.4094488188976378,
          "duration": 0.11562500000000142
        },
        {
          "name": "G1",
          "midi": 31,
          "time": 60.886458333333216,
          "velocity": 0.7086614173228346,
          "duration": 0.7791666666666615
        },
        {
          "name": "A3",
          "midi": 57,
          "time": 61.39687499999988,
          "velocity": 0.4881889763779528,
          "duration": 0.2802083333333272
        },
        {
          "name": "G2",
          "midi": 43,
          "time": 61.920833333333206,
          "velocity": 0.3543307086614173,
          "duration": 0.18541666666666146
        },
        {
          "name": "F#3",
          "midi": 54,
          "time": 61.979166666666536,
          "velocity": 0.4094488188976378,
          "duration": 0.19687499999999858
        },
        {
          "name": "B3",
          "midi": 59,
          "time": 62.07187499999987,
          "velocity": 0.4094488188976378,
          "duration": 0.24374999999999858
        },
        {
          "name": "G1",
          "midi": 31,
          "time": 62.0833333333332,
          "velocity": 0.7874015748031497,
          "duration": 0.6041666666666714
        },
        {
          "name": "G2",
          "midi": 43,
          "time": 62.11874999999987,
          "velocity": 0.3464566929133858,
          "duration": 0.08124999999999716
        },
        {
          "name": "B3",
          "midi": 59,
          "time": 62.4552083333332,
          "velocity": 0.2992125984251969,
          "duration": 0.16250000000000142
        },
        {
          "name": "G1",
          "midi": 31,
          "time": 62.68749999999987,
          "velocity": 0.5196850393700787,
          "duration": 0.23229166666666856
        },
        {
          "name": "G1",
          "midi": 31,
          "time": 63.070833333333205,
          "velocity": 0.5984251968503937,
          "duration": 0.42916666666666714
        },
        {
          "name": "A3",
          "midi": 57,
          "time": 63.6989583333332,
          "velocity": 0.3858267716535433,
          "duration": 0.5572916666666501
        },
        {
          "name": "G2",
          "midi": 43,
          "time": 63.756249999999866,
          "velocity": 0.3858267716535433,
          "duration": 0.37187499999998863
        },
        {
          "name": "D2",
          "midi": 38,
          "time": 63.803124999999866,
          "velocity": 0.4881889763779528,
          "duration": 0.16250000000000142
        },
        {
          "name": "G1",
          "midi": 31,
          "time": 63.826041666666534,
          "velocity": 0.4409448818897638,
          "duration": 0.1510416666666643
        },
        {
          "name": "G1",
          "midi": 31,
          "time": 63.98854166666653,
          "velocity": 0.5511811023622047,
          "duration": 0.18541666666666146
        },
        {
          "name": "F#3",
          "midi": 54,
          "time": 64.09374999999986,
          "velocity": 0.3700787401574803,
          "duration": 0.11562499999999432
        },
        {
          "name": "G1",
          "midi": 31,
          "time": 64.54583333333319,
          "velocity": 0.6771653543307087,
          "duration": 0.7781249999999886
        },
        {
          "name": "A3",
          "midi": 57,
          "time": 64.63854166666653,
          "velocity": 0.31496062992125984,
          "duration": 0.06979166666666003
        },
        {
          "name": "A3",
          "midi": 57,
          "time": 65.08020833333319,
          "velocity": 0.5590551181102362,
          "duration": 0.11562499999999432
        },
        {
          "name": "B3",
          "midi": 59,
          "time": 65.23124999999985,
          "velocity": 0.47244094488188976,
          "duration": 0.18541666666666856
        },
        {
          "name": "B2",
          "midi": 47,
          "time": 65.50937499999985,
          "velocity": 0.33858267716535434,
          "duration": 0.08229166666667709
        },
        {
          "name": "D4",
          "midi": 62,
          "time": 65.52187499999985,
          "velocity": 0.4881889763779528,
          "duration": 0.05937500000000284
        },
        {
          "name": "D4",
          "midi": 62,
          "time": 65.59270833333319,
          "velocity": 0.44881889763779526,
          "duration": 0.38333333333333997
        },
        {
          "name": "B1",
          "midi": 35,
          "time": 65.60416666666653,
          "velocity": 0.6692913385826772,
          "duration": 0.9749999999999943
        },
        {
          "name": "F#3",
          "midi": 54,
          "time": 65.74374999999986,
          "velocity": 0.33070866141732286,
          "duration": 0.18541666666666856
        },
        {
          "name": "C#4",
          "midi": 61,
          "time": 65.97499999999987,
          "velocity": 0.47244094488188976,
          "duration": 0.09270833333333428
        },
        {
          "name": "A1",
          "midi": 33,
          "time": 66.34687499999987,
          "velocity": 0.7007874015748031,
          "duration": 0.8593749999999858
        },
        {
          "name": "C#4",
          "midi": 61,
          "time": 66.36979166666653,
          "velocity": 0.41732283464566927,
          "duration": 0.3479166666666629
        },
        {
          "name": "B3",
          "midi": 59,
          "time": 66.63749999999986,
          "velocity": 0.4094488188976378,
          "duration": 0.37187500000000284
        },
        {
          "name": "F#3",
          "midi": 54,
          "time": 66.6489583333332,
          "velocity": 0.4881889763779528,
          "duration": 0.42916666666666003
        },
        {
          "name": "C#4",
          "midi": 61,
          "time": 66.98541666666652,
          "velocity": 0.4094488188976378,
          "duration": 0.18541666666666856
        },
        {
          "name": "D2",
          "midi": 38,
          "time": 67.39166666666652,
          "velocity": 0.33070866141732286,
          "duration": 0.3499999999999943
        },
        {
          "name": "F#3",
          "midi": 54,
          "time": 67.41458333333318,
          "velocity": 0.4015748031496063,
          "duration": 0.08124999999999716
        },
        {
          "name": "G1",
          "midi": 31,
          "time": 67.46145833333318,
          "velocity": 0.5905511811023622,
          "duration": 0.3843749999999915
        },
        {
          "name": "A3",
          "midi": 57,
          "time": 67.60208333333318,
          "velocity": 0.4409448818897638,
          "duration": 0.1510416666666714
        },
        {
          "name": "A3",
          "midi": 57,
          "time": 67.75312499999986,
          "velocity": 0.4645669291338583,
          "duration": 0.2093749999999801
        },
        {
          "name": "D2",
          "midi": 38,
          "time": 67.75312499999986,
          "velocity": 0.36220472440944884,
          "duration": 0.06979166666666003
        },
        {
          "name": "A3",
          "midi": 57,
          "time": 68.0197916666665,
          "velocity": 0.3779527559055118,
          "duration": 0.11562499999999432
        },
        {
          "name": "G1",
          "midi": 31,
          "time": 68.15937499999984,
          "velocity": 0.6456692913385826,
          "duration": 0.7895833333333258
        },
        {
          "name": "B3",
          "midi": 59,
          "time": 68.24062499999984,
          "velocity": 0.5118110236220472,
          "duration": 0.13958333333333428
        },
        {
          "name": "E5",
          "midi": 76,
          "time": 68.44999999999983,
          "velocity": 0.25984251968503935,
          "duration": 0.19687500000000568
        },
        {
          "name": "A3",
          "midi": 57,
          "time": 68.44999999999983,
          "velocity": 0.41732283464566927,
          "duration": 0.4177083333333371
        },
        {
          "name": "E5",
          "midi": 76,
          "time": 68.72812499999984,
          "velocity": 0.30708661417322836,
          "duration": 0.11562499999999432
        },
        {
          "name": "F#3",
          "midi": 54,
          "time": 68.97187499999983,
          "velocity": 0.4015748031496063,
          "duration": 0.5104166666666572
        },
        {
          "name": "D3",
          "midi": 50,
          "time": 69.15833333333316,
          "velocity": 0.3543307086614173,
          "duration": 0.06979166666666003
        },
        {
          "name": "G1",
          "midi": 31,
          "time": 69.19270833333316,
          "velocity": 0.7007874015748031,
          "duration": 0.8135416666666657
        },
        {
          "name": "B3",
          "midi": 59,
          "time": 69.34374999999982,
          "velocity": 0.4094488188976378,
          "duration": 0.5822916666666771
        },
        {
          "name": "F#3",
          "midi": 54,
          "time": 69.49479166666649,
          "velocity": 0.4645669291338583,
          "duration": 0.10625000000000284
        },
        {
          "name": "E3",
          "midi": 52,
          "time": 69.61145833333316,
          "velocity": 0.5511811023622047,
          "duration": 0.32500000000000284
        },
        {
          "name": "E3",
          "midi": 52,
          "time": 70.01874999999983,
          "velocity": 0.33858267716535434,
          "duration": 0.27812500000000284
        },
        {
          "name": "E3",
          "midi": 52,
          "time": 70.29687499999983,
          "velocity": 0.3700787401574803,
          "duration": 0.27812500000000284
        },
        {
          "name": "G1",
          "midi": 31,
          "time": 70.43645833333316,
          "velocity": 0.3858267716535433,
          "duration": 0.08124999999999716
        },
        {
          "name": "G1",
          "midi": 31,
          "time": 70.5291666666665,
          "velocity": 0.7874015748031497,
          "duration": 0.11562499999999432
        },
        {
          "name": "G1",
          "midi": 31,
          "time": 70.64479166666649,
          "velocity": 0.6062992125984252,
          "duration": 0.19687500000000568
        },
        {
          "name": "D3",
          "midi": 50,
          "time": 70.69166666666649,
          "velocity": 0.4881889763779528,
          "duration": 0.16250000000000853
        },
        {
          "name": "F#3",
          "midi": 54,
          "time": 70.95833333333317,
          "velocity": 0.4409448818897638,
          "duration": 0.19687500000000568
        },
        {
          "name": "A1",
          "midi": 33,
          "time": 71.10937499999984,
          "velocity": 0.5590551181102362,
          "duration": 0.06979166666667425
        },
        {
          "name": "F#3",
          "midi": 54,
          "time": 71.16770833333318,
          "velocity": 0.41732283464566927,
          "duration": 0.2552083333333286
        },
        {
          "name": "A1",
          "midi": 33,
          "time": 71.17916666666652,
          "velocity": 0.6141732283464567,
          "duration": 0.3135416666666515
        },
        {
          "name": "D3",
          "midi": 50,
          "time": 71.21458333333318,
          "velocity": 0.48031496062992124,
          "duration": 0.2552083333333286
        },
        {
          "name": "D2",
          "midi": 38,
          "time": 71.39999999999985,
          "velocity": 0.3228346456692913,
          "duration": 0.1156249999999801
        },
        {
          "name": "D3",
          "midi": 50,
          "time": 71.46979166666651,
          "velocity": 0.4251968503937008,
          "duration": 0.1874999999999858
        },
        {
          "name": "D3",
          "midi": 50,
          "time": 71.65624999999983,
          "velocity": 0.4645669291338583,
          "duration": 0.11562499999999432
        },
        {
          "name": "A1",
          "midi": 33,
          "time": 71.78437499999983,
          "velocity": 0.5590551181102362,
          "duration": 0.18541666666666856
        },
        {
          "name": "E3",
          "midi": 52,
          "time": 71.83020833333316,
          "velocity": 0.44881889763779526,
          "duration": 0.22083333333333144
        },
        {
          "name": "A1",
          "midi": 33,
          "time": 71.9697916666665,
          "velocity": 0.7244094488188977,
          "duration": 0.6729166666666515
        },
        {
          "name": "E3",
          "midi": 52,
          "time": 72.05104166666649,
          "velocity": 0.5196850393700787,
          "duration": 0.3947916666666629
        },
        {
          "name": "C#4",
          "midi": 61,
          "time": 72.48124999999982,
          "velocity": 0.3858267716535433,
          "duration": 0.3479166666666629
        },
        {
          "name": "G#5",
          "midi": 80,
          "time": 72.68958333333315,
          "velocity": 0.2992125984251969,
          "duration": 0.23229166666666856
        },
        {
          "name": "F#3",
          "midi": 54,
          "time": 72.78229166666648,
          "velocity": 0.4094488188976378,
          "duration": 0.12812499999999716
        },
        {
          "name": "B2",
          "midi": 47,
          "time": 72.78229166666648,
          "velocity": 0.33858267716535434,
          "duration": 0.06979166666666003
        },
        {
          "name": "B1",
          "midi": 35,
          "time": 72.85208333333314,
          "velocity": 0.5984251968503937,
          "duration": 0.18541666666668277
        },
        {
          "name": "D4",
          "midi": 62,
          "time": 72.93333333333315,
          "velocity": 0.47244094488188976,
          "duration": 0.23229166666666856
        },
        {
          "name": "B1",
          "midi": 35,
          "time": 73.03854166666649,
          "velocity": 0.7244094488188977,
          "duration": 0.4062500000000142
        },
        {
          "name": "F#3",
          "midi": 54,
          "time": 73.04999999999983,
          "velocity": 0.3700787401574803,
          "duration": 0.13958333333333428
        },
        {
          "name": "F#3",
          "midi": 54,
          "time": 73.38645833333317,
          "velocity": 0.36220472440944884,
          "duration": 0.08124999999999716
        },
        {
          "name": "B1",
          "midi": 35,
          "time": 73.4447916666665,
          "velocity": 0.6771653543307087,
          "duration": 0.1520833333333229
        },
        {
          "name": "B1",
          "midi": 35,
          "time": 73.59687499999983,
          "velocity": 0.41732283464566927,
          "duration": 0.09270833333333428
        },
        {
          "name": "A1",
          "midi": 33,
          "time": 73.59687499999983,
          "velocity": 0.5118110236220472,
          "duration": 0.08124999999999716
        },
        {
          "name": "A1",
          "midi": 33,
          "time": 73.67812499999982,
          "velocity": 0.6614173228346457,
          "duration": 0.1041666666666714
        },
        {
          "name": "E3",
          "midi": 52,
          "time": 73.67812499999982,
          "velocity": 0.36220472440944884,
          "duration": 0.06979166666667425
        },
        {
          "name": "C#4",
          "midi": 61,
          "time": 73.67812499999982,
          "velocity": 0.33858267716535434,
          "duration": 0.1041666666666714
        },
        {
          "name": "F#3",
          "midi": 54,
          "time": 73.73645833333316,
          "velocity": 0.3779527559055118,
          "duration": 0.4416666666666629
        },
        {
          "name": "A1",
          "midi": 33,
          "time": 73.7822916666665,
          "velocity": 0.7007874015748031,
          "duration": 0.6854166666666686
        },
        {
          "name": "C#4",
          "midi": 61,
          "time": 73.79374999999983,
          "velocity": 0.3228346456692913,
          "duration": 0.06979166666666003
        },
        {
          "name": "A3",
          "midi": 57,
          "time": 74.57187499999984,
          "velocity": 0.4409448818897638,
          "duration": 0.5802083333333314
        },
        {
          "name": "G1",
          "midi": 31,
          "time": 74.66458333333317,
          "velocity": 0.6220472440944882,
          "duration": 0.47604166666666003
        },
        {
          "name": "F#3",
          "midi": 54,
          "time": 75.26874999999983,
          "velocity": 0.44881889763779526,
          "duration": 0.1041666666666714
        },
        {
          "name": "F#3",
          "midi": 54,
          "time": 75.47708333333317,
          "velocity": 0.3858267716535433,
          "duration": 0.12916666666666288
        },
        {
          "name": "G1",
          "midi": 31,
          "time": 75.48958333333317,
          "velocity": 0.6377952755905512,
          "duration": 0.6052083333333229
        },
        {
          "name": "E3",
          "midi": 52,
          "time": 75.69895833333317,
          "velocity": 0.5039370078740157,
          "duration": 0.13958333333333428
        },
        {
          "name": "A3",
          "midi": 57,
          "time": 75.8041666666665,
          "velocity": 0.33858267716535434,
          "duration": 0.24374999999999147
        },
        {
          "name": "F#3",
          "midi": 54,
          "time": 76.12916666666649,
          "velocity": 0.3858267716535433,
          "duration": 0.11562499999999432
        },
        {
          "name": "F#3",
          "midi": 54,
          "time": 76.41874999999982,
          "velocity": 0.4566929133858268,
          "duration": 0.4062499999999858
        },
        {
          "name": "G1",
          "midi": 31,
          "time": 76.53541666666648,
          "velocity": 0.6929133858267716,
          "duration": 0.8354166666666742
        },
        {
          "name": "D2",
          "midi": 38,
          "time": 76.54687499999982,
          "velocity": 0.3543307086614173,
          "duration": 0.06979166666666003
        },
        {
          "name": "B3",
          "midi": 59,
          "time": 76.68645833333314,
          "velocity": 0.3937007874015748,
          "duration": 0.16250000000000853
        },
        {
          "name": "F#3",
          "midi": 54,
          "time": 76.8374999999998,
          "velocity": 0.4251968503937008,
          "duration": 0.5687500000000085
        },
        {
          "name": "B3",
          "midi": 59,
          "time": 77.03437499999981,
          "velocity": 0.4409448818897638,
          "duration": 0.18541666666666856
        },
        {
          "name": "F#3",
          "midi": 54,
          "time": 77.60520833333315,
          "velocity": 0.3779527559055118,
          "duration": 0.19687499999999147
        },
        {
          "name": "G1",
          "midi": 31,
          "time": 77.62812499999981,
          "velocity": 0.4881889763779528,
          "duration": 0.11562499999999432
        },
        {
          "name": "G1",
          "midi": 31,
          "time": 77.75520833333314,
          "velocity": 0.6220472440944882,
          "duration": 0.27812500000000284
        },
        {
          "name": "E3",
          "midi": 52,
          "time": 77.95312499999982,
          "velocity": 0.5669291338582677,
          "duration": 0.1510416666666714
        },
        {
          "name": "F#3",
          "midi": 54,
          "time": 78.25520833333316,
          "velocity": 0.3700787401574803,
          "duration": 0.09270833333333428
        },
        {
          "name": "D2",
          "midi": 38,
          "time": 78.31249999999983,
          "velocity": 0.4409448818897638,
          "duration": 0.19687500000000568
        },
        {
          "name": "G1",
          "midi": 31,
          "time": 78.32499999999983,
          "velocity": 0.6535433070866141,
          "duration": 0.3947916666666629
        },
        {
          "name": "A3",
          "midi": 57,
          "time": 78.49895833333316,
          "velocity": 0.3779527559055118,
          "duration": 0.23229166666666856
        },
        {
          "name": "F#3",
          "midi": 54,
          "time": 78.63749999999983,
          "velocity": 0.4330708661417323,
          "duration": 0.6385416666666686
        },
        {
          "name": "G1",
          "midi": 31,
          "time": 79.05624999999984,
          "velocity": 0.7007874015748031,
          "duration": 0.8020833333333428
        },
        {
          "name": "E3",
          "midi": 52,
          "time": 79.3697916666665,
          "velocity": 0.48031496062992124,
          "duration": 0.3843750000000057
        },
        {
          "name": "A3",
          "midi": 57,
          "time": 79.56770833333317,
          "velocity": 0.36220472440944884,
          "duration": 0.1041666666666714
        },
        {
          "name": "F#3",
          "midi": 54,
          "time": 80.05520833333318,
          "velocity": 0.36220472440944884,
          "duration": 0.09270833333333428
        },
        {
          "name": "B1",
          "midi": 35,
          "time": 80.16041666666652,
          "velocity": 0.47244094488188976,
          "duration": 0.06979166666666003
        },
        {
          "name": "B1",
          "midi": 35,
          "time": 80.24166666666652,
          "velocity": 0.7637795275590551,
          "duration": 0.6270833333333456
        },
        {
          "name": "D4",
          "midi": 62,
          "time": 80.39270833333319,
          "velocity": 0.4566929133858268,
          "duration": 0.18541666666666856
        },
        {
          "name": "F#3",
          "midi": 54,
          "time": 80.40416666666653,
          "velocity": 0.4015748031496063,
          "duration": 0.11562499999999432
        },
        {
          "name": "F#3",
          "midi": 54,
          "time": 80.75208333333319,
          "velocity": 0.4094488188976378,
          "duration": 0.1041666666666714
        },
        {
          "name": "B1",
          "midi": 35,
          "time": 80.86874999999986,
          "velocity": 0.48031496062992124,
          "duration": 0.18541666666666856
        },
        {
          "name": "F#3",
          "midi": 54,
          "time": 80.92604166666653,
          "velocity": 0.3464566929133858,
          "duration": 0.6052083333333229
        },
        {
          "name": "A1",
          "midi": 33,
          "time": 80.92604166666653,
          "velocity": 0.6929133858267716,
          "duration": 0.7447916666666572
        },
        {
          "name": "C#4",
          "midi": 61,
          "time": 81.07708333333319,
          "velocity": 0.4881889763779528,
          "duration": 0.2552083333333286
        },
        {
          "name": "G3",
          "midi": 55,
          "time": 81.9489583333332,
          "velocity": 0.33070866141732286,
          "duration": 0.06979166666667425
        },
        {
          "name": "G1",
          "midi": 31,
          "time": 82.00729166666653,
          "velocity": 0.4409448818897638,
          "duration": 0.38333333333333997
        },
        {
          "name": "F#3",
          "midi": 54,
          "time": 82.04270833333321,
          "velocity": 0.3937007874015748,
          "duration": 0.1510416666666714
        },
        {
          "name": "G2",
          "midi": 43,
          "time": 82.13541666666654,
          "velocity": 0.4251968503937008,
          "duration": 0.18541666666666856
        },
        {
          "name": "A3",
          "midi": 57,
          "time": 82.18124999999988,
          "velocity": 0.4094488188976378,
          "duration": 0.13958333333333428
        },
        {
          "name": "F#3",
          "midi": 54,
          "time": 82.34374999999987,
          "velocity": 0.4645669291338583,
          "duration": 0.1041666666666714
        },
        {
          "name": "G1",
          "midi": 31,
          "time": 82.72708333333321,
          "velocity": 0.6771653543307087,
          "duration": 0.8020833333333428
        },
        {
          "name": "F#3",
          "midi": 54,
          "time": 82.77395833333321,
          "velocity": 0.4409448818897638,
          "duration": 0.13958333333333428
        },
        {
          "name": "E3",
          "midi": 52,
          "time": 83.01770833333322,
          "velocity": 0.47244094488188976,
          "duration": 0.33645833333333997
        },
        {
          "name": "A#5",
          "midi": 82,
          "time": 83.70416666666655,
          "velocity": 0.30708661417322836,
          "duration": 0.1041666666666714
        },
        {
          "name": "F#3",
          "midi": 54,
          "time": 83.70416666666655,
          "velocity": 0.6220472440944882,
          "duration": 0.09270833333333428
        },
        {
          "name": "G2",
          "midi": 43,
          "time": 83.78541666666655,
          "velocity": 0.47244094488188976,
          "duration": 0.1510416666666714
        },
        {
          "name": "F#3",
          "midi": 54,
          "time": 83.79687499999989,
          "velocity": 0.49606299212598426,
          "duration": 0.3020833333333428
        },
        {
          "name": "G1",
          "midi": 31,
          "time": 83.86666666666656,
          "velocity": 0.5196850393700787,
          "duration": 0.2666666666666657
        },
        {
          "name": "B3",
          "midi": 59,
          "time": 83.99374999999989,
          "velocity": 0.3937007874015748,
          "duration": 0.3479166666666629
        },
        {
          "name": "F#3",
          "midi": 54,
          "time": 84.09895833333323,
          "velocity": 0.6141732283464567,
          "duration": 0.2666666666666657
        },
        {
          "name": "B3",
          "midi": 59,
          "time": 84.35416666666656,
          "velocity": 0.4094488188976378,
          "duration": 0.12812500000001137
        },
        {
          "name": "G1",
          "midi": 31,
          "time": 84.42395833333323,
          "velocity": 0.33070866141732286,
          "duration": 0.08124999999999716
        },
        {
          "name": "F#3",
          "midi": 54,
          "time": 84.63229166666656,
          "velocity": 0.41732283464566927,
          "duration": 0.1041666666666714
        },
        {
          "name": "C3",
          "midi": 48,
          "time": 84.7374999999999,
          "velocity": 0.2440944881889764,
          "duration": 0.13958333333333428
        },
        {
          "name": "E3",
          "midi": 52,
          "time": 84.85312499999989,
          "velocity": 0.4330708661417323,
          "duration": 0.27812500000000284
        },
        {
          "name": "E2",
          "midi": 40,
          "time": 84.9343749999999,
          "velocity": 0.3779527559055118,
          "duration": 0.08124999999999716
        },
        {
          "name": "G1",
          "midi": 31,
          "time": 85.0156249999999,
          "velocity": 0.4015748031496063,
          "duration": 0.2666666666666657
        },
        {
          "name": "A3",
          "midi": 57,
          "time": 85.49270833333323,
          "velocity": 0.3464566929133858,
          "duration": 0.453125
        },
        {
          "name": "F#3",
          "midi": 54,
          "time": 85.50416666666656,
          "velocity": 0.5039370078740157,
          "duration": 0.534374999999983
        },
        {
          "name": "A2",
          "midi": 45,
          "time": 85.5281249999999,
          "velocity": 0.3779527559055118,
          "duration": 0.09270833333333428
        },
        {
          "name": "A1",
          "midi": 33,
          "time": 85.6437499999999,
          "velocity": 0.4330708661417323,
          "duration": 0.16249999999999432
        },
        {
          "name": "D2",
          "midi": 38,
          "time": 86.01562499999989,
          "velocity": 0.2992125984251969,
          "duration": 0.06979166666666003
        },
        {
          "name": "F#3",
          "midi": 54,
          "time": 86.18958333333322,
          "velocity": 0.3543307086614173,
          "duration": 0.06979166666666003
        },
        {
          "name": "F#3",
          "midi": 54,
          "time": 86.27083333333321,
          "velocity": 0.3464566929133858,
          "duration": 0.24375000000000568
        },
        {
          "name": "A1",
          "midi": 33,
          "time": 86.34062499999987,
          "velocity": 0.3464566929133858,
          "duration": 0.26666666666667993
        },
        {
          "name": "A2",
          "midi": 45,
          "time": 86.35208333333321,
          "velocity": 0.3937007874015748,
          "duration": 0.1041666666666714
        },
        {
          "name": "E3",
          "midi": 52,
          "time": 86.57291666666656,
          "velocity": 0.5118110236220472,
          "duration": 0.3604166666666657
        },
        {
          "name": "A2",
          "midi": 45,
          "time": 86.61874999999989,
          "velocity": 0.29133858267716534,
          "duration": 0.2552083333333286
        },
        {
          "name": "F#3",
          "midi": 54,
          "time": 86.69999999999989,
          "velocity": 0.3858267716535433,
          "duration": 0.24375000000000568
        },
        {
          "name": "F#3",
          "midi": 54,
          "time": 87.32708333333323,
          "velocity": 0.4409448818897638,
          "duration": 0.22187499999999716
        },
        {
          "name": "B1",
          "midi": 35,
          "time": 87.4218749999999,
          "velocity": 0.5196850393700787,
          "duration": 0.06979166666666003
        },
        {
          "name": "B1",
          "midi": 35,
          "time": 87.49166666666656,
          "velocity": 0.6377952755905512,
          "duration": 0.6385416666666686
        },
        {
          "name": "B2",
          "midi": 47,
          "time": 87.9437499999999,
          "velocity": 0.33070866141732286,
          "duration": 0.12812499999999716
        },
        {
          "name": "F#3",
          "midi": 54,
          "time": 87.95520833333323,
          "velocity": 0.3543307086614173,
          "duration": 0.11562499999999432
        },
        {
          "name": "A1",
          "midi": 33,
          "time": 88.15312499999989,
          "velocity": 0.6299212598425197,
          "duration": 0.3020833333333428
        },
        {
          "name": "C#4",
          "midi": 61,
          "time": 88.3499999999999,
          "velocity": 0.33858267716535434,
          "duration": 0.17395833333333144
        },
        {
          "name": "F#3",
          "midi": 54,
          "time": 88.43124999999989,
          "velocity": 0.33858267716535434,
          "duration": 0.06979166666667425
        },
        {
          "name": "A1",
          "midi": 33,
          "time": 88.45520833333323,
          "velocity": 0.6929133858267716,
          "duration": 0.5687499999999943
        },
        {
          "name": "E3",
          "midi": 52,
          "time": 88.46666666666657,
          "velocity": 0.33070866141732286,
          "duration": 0.5343749999999972
        },
        {
          "name": "G1",
          "midi": 31,
          "time": 89.2093749999999,
          "velocity": 0.5984251968503937,
          "duration": 0.46562500000000284
        },
        {
          "name": "A3",
          "midi": 57,
          "time": 89.45416666666657,
          "velocity": 0.3464566929133858,
          "duration": 0.11562499999999432
        },
        {
          "name": "G1",
          "midi": 31,
          "time": 89.94270833333323,
          "velocity": 0.4881889763779528,
          "duration": 0.11562499999999432
        },
        {
          "name": "G1",
          "midi": 31,
          "time": 90.06979166666656,
          "velocity": 0.6929133858267716,
          "duration": 0.6968749999999915
        },
        {
          "name": "E3",
          "midi": 52,
          "time": 90.23229166666655,
          "velocity": 0.5196850393700787,
          "duration": 0.40625
        },
        {
          "name": "B2",
          "midi": 47,
          "time": 91.12604166666655,
          "velocity": 0.41732283464566927,
          "duration": 0.2562500000000085
        },
        {
          "name": "B3",
          "midi": 59,
          "time": 91.13854166666655,
          "velocity": 0.30708661417322836,
          "duration": 0.2562500000000085
        },
        {
          "name": "G1",
          "midi": 31,
          "time": 91.17291666666655,
          "velocity": 0.6456692913385826,
          "duration": 1.4520833333333485
        },
        {
          "name": "G2",
          "midi": 43,
          "time": 91.17291666666655,
          "velocity": 0.33070866141732286,
          "duration": 0.1041666666666714
        },
        {
          "name": "B2",
          "midi": 47,
          "time": 91.39479166666656,
          "velocity": 0.4881889763779528,
          "duration": 0.20937499999999432
        },
        {
          "name": "B2",
          "midi": 47,
          "time": 91.60416666666656,
          "velocity": 0.44881889763779526,
          "duration": 0.11562499999999432
        },
        {
          "name": "E3",
          "midi": 52,
          "time": 92.10312499999989,
          "velocity": 0.47244094488188976,
          "duration": 0.37187500000000284
        },
        {
          "name": "E2",
          "midi": 40,
          "time": 92.18437499999989,
          "velocity": 0.3779527559055118,
          "duration": 0.1041666666666714
        },
        {
          "name": "A3",
          "midi": 57,
          "time": 92.7874999999999,
          "velocity": 0.4015748031496063,
          "duration": 0.4645833333333087
        },
        {
          "name": "D2",
          "midi": 38,
          "time": 92.86874999999989,
          "velocity": 0.31496062992125984,
          "duration": 0.13958333333332007
        },
        {
          "name": "G1",
          "midi": 31,
          "time": 92.96249999999989,
          "velocity": 0.5354330708661418,
          "duration": 0.3249999999999744
        },
        {
          "name": "G2",
          "midi": 43,
          "time": 92.98541666666655,
          "velocity": 0.3858267716535433,
          "duration": 0.13958333333332007
        },
        {
          "name": "F#3",
          "midi": 54,
          "time": 93.2177083333332,
          "velocity": 0.41732283464566927,
          "duration": 0.13958333333332007
        },
        {
          "name": "E3",
          "midi": 52,
          "time": 93.49791666666653,
          "velocity": 0.49606299212598426,
          "duration": 0.13958333333333428
        },
        {
          "name": "G1",
          "midi": 31,
          "time": 93.62499999999986,
          "velocity": 0.6929133858267716,
          "duration": 0.8125000000000142
        },
        {
          "name": "E3",
          "midi": 52,
          "time": 93.83437499999987,
          "velocity": 0.5511811023622047,
          "duration": 0.4989583333333343
        },
        {
          "name": "A3",
          "midi": 57,
          "time": 93.9739583333332,
          "velocity": 0.31496062992125984,
          "duration": 0.12812499999999716
        },
        {
          "name": "B1",
          "midi": 35,
          "time": 94.69374999999987,
          "velocity": 0.6062992125984252,
          "duration": 0.1041666666666714
        },
        {
          "name": "B1",
          "midi": 35,
          "time": 94.79791666666654,
          "velocity": 0.7165354330708661,
          "duration": 0.6395833333333343
        },
        {
          "name": "F#3",
          "midi": 54,
          "time": 94.84374999999987,
          "velocity": 0.44881889763779526,
          "duration": 0.17395833333333144
        },
        {
          "name": "D4",
          "midi": 62,
          "time": 95.04166666666654,
          "velocity": 0.4094488188976378,
          "duration": 0.23229166666666856
        },
        {
          "name": "B1",
          "midi": 35,
          "time": 95.43749999999987,
          "velocity": 0.3700787401574803,
          "duration": 0.18541666666665435
        },
        {
          "name": "F#3",
          "midi": 54,
          "time": 95.46041666666653,
          "velocity": 0.33858267716535434,
          "duration": 0.3604166666666657
        },
        {
          "name": "A1",
          "midi": 33,
          "time": 95.46041666666653,
          "velocity": 0.7086614173228346,
          "duration": 0.8125
        },
        {
          "name": "C#4",
          "midi": 61,
          "time": 95.76249999999986,
          "velocity": 0.4015748031496063,
          "duration": 0.22083333333333144
        },
        {
          "name": "F#3",
          "midi": 54,
          "time": 96.04166666666653,
          "velocity": 0.5433070866141733,
          "duration": 0.2666666666666657
        },
        {
          "name": "C#4",
          "midi": 61,
          "time": 96.45937499999987,
          "velocity": 0.4094488188976378,
          "duration": 0.11562499999999432
        },
        {
          "name": "D2",
          "midi": 38,
          "time": 96.5177083333332,
          "velocity": 0.3228346456692913,
          "duration": 0.11562499999999432
        },
        {
          "name": "G1",
          "midi": 31,
          "time": 96.54062499999986,
          "velocity": 0.6220472440944882,
          "duration": 0.4177083333333371
        },
        {
          "name": "A3",
          "midi": 57,
          "time": 96.69166666666653,
          "velocity": 0.33070866141732286,
          "duration": 0.12812499999999716
        },
        {
          "name": "A3",
          "midi": 57,
          "time": 96.83124999999987,
          "velocity": 0.33858267716535434,
          "duration": 0.1510416666666714
        },
        {
          "name": "G1",
          "midi": 31,
          "time": 97.2489583333332,
          "velocity": 0.6929133858267716,
          "duration": 0.8604166666666657
        },
        {
          "name": "B3",
          "midi": 59,
          "time": 97.30729166666654,
          "velocity": 0.4881889763779528,
          "duration": 0.09375
        },
        {
          "name": "C#4",
          "midi": 61,
          "time": 97.40104166666654,
          "velocity": 0.30708661417322836,
          "duration": 0.09270833333333428
        },
        {
          "name": "A3",
          "midi": 57,
          "time": 97.63333333333321,
          "velocity": 0.4330708661417323,
          "duration": 0.3020833333333286
        },
        {
          "name": "B3",
          "midi": 59,
          "time": 97.96979166666654,
          "velocity": 0.4566929133858268,
          "duration": 0.1510416666666714
        },
        {
          "name": "F#3",
          "midi": 54,
          "time": 98.21354166666654,
          "velocity": 0.3700787401574803,
          "duration": 0.10416666666665719
        },
        {
          "name": "G1",
          "midi": 31,
          "time": 98.2489583333332,
          "velocity": 0.6929133858267716,
          "duration": 0.9052083333333201
        },
        {
          "name": "B3",
          "midi": 59,
          "time": 98.3645833333332,
          "velocity": 0.3937007874015748,
          "duration": 0.4416666666666629
        },
        {
          "name": "F#3",
          "midi": 54,
          "time": 98.6895833333332,
          "velocity": 0.4330708661417323,
          "duration": 0.24374999999999147
        },
        {
          "name": "G2",
          "midi": 43,
          "time": 99.11874999999986,
          "velocity": 0.33070866141732286,
          "duration": 0.06979166666666003
        },
        {
          "name": "G1",
          "midi": 31,
          "time": 99.49166666666652,
          "velocity": 0.49606299212598426,
          "duration": 0.1041666666666714
        },
        {
          "name": "G1",
          "midi": 31,
          "time": 99.60833333333319,
          "velocity": 0.6299212598425197,
          "duration": 0.4416666666666771
        },
        {
          "name": "B3",
          "midi": 59,
          "time": 99.97916666666653,
          "velocity": 0.4566929133858268,
          "duration": 0.1041666666666714
        },
        {
          "name": "C#4",
          "midi": 61,
          "time": 100.07291666666653,
          "velocity": 0.5196850393700787,
          "duration": 0.12812500000001137
        },
        {
          "name": "A3",
          "midi": 57,
          "time": 100.29270833333321,
          "velocity": 0.4881889763779528,
          "duration": 0.37187500000000284
        },
        {
          "name": "E4",
          "midi": 64,
          "time": 100.71145833333321,
          "velocity": 0.4645669291338583,
          "duration": 0.1041666666666714
        },
        {
          "name": "B3",
          "midi": 59,
          "time": 100.94374999999988,
          "velocity": 0.5039370078740157,
          "duration": 0.08124999999999716
        },
        {
          "name": "C#4",
          "midi": 61,
          "time": 101.04791666666654,
          "velocity": 0.3858267716535433,
          "duration": 0.12812499999999716
        },
        {
          "name": "A3",
          "midi": 57,
          "time": 101.3739583333332,
          "velocity": 0.4645669291338583,
          "duration": 0.17395833333333144
        },
        {
          "name": "B3",
          "midi": 59,
          "time": 101.60624999999987,
          "velocity": 0.36220472440944884,
          "duration": 0.12812499999999716
        },
        {
          "name": "B2",
          "midi": 47,
          "time": 101.67604166666653,
          "velocity": 0.33070866141732286,
          "duration": 0.06979166666667425
        },
        {
          "name": "B2",
          "midi": 47,
          "time": 101.9083333333332,
          "velocity": 0.33070866141732286,
          "duration": 0.10416666666665719
        },
        {
          "name": "B1",
          "midi": 35,
          "time": 101.9427083333332,
          "velocity": 0.7086614173228346,
          "duration": 0.1510416666666572
        },
        {
          "name": "D4",
          "midi": 62,
          "time": 101.9895833333332,
          "velocity": 0.3700787401574803,
          "duration": 0.6854166666666544
        },
        {
          "name": "B1",
          "midi": 35,
          "time": 102.09374999999986,
          "velocity": 0.7086614173228346,
          "duration": 0.7197916666666657
        },
        {
          "name": "F#3",
          "midi": 54,
          "time": 102.1052083333332,
          "velocity": 0.3228346456692913,
          "duration": 0.11562499999999432
        },
        {
          "name": "F#3",
          "midi": 54,
          "time": 102.44270833333319,
          "velocity": 0.29133858267716534,
          "duration": 0.13958333333333428
        },
        {
          "name": "D4",
          "midi": 62,
          "time": 102.67395833333319,
          "velocity": 0.4015748031496063,
          "duration": 0.06979166666666003
        },
        {
          "name": "A1",
          "midi": 33,
          "time": 102.70937499999985,
          "velocity": 0.4094488188976378,
          "duration": 0.06979166666667425
        },
        {
          "name": "E3",
          "midi": 52,
          "time": 102.75520833333319,
          "velocity": 0.2755905511811024,
          "duration": 0.23229166666666856
        },
        {
          "name": "A1",
          "midi": 33,
          "time": 102.77916666666653,
          "velocity": 0.7165354330708661,
          "duration": 0.8374999999999773
        },
        {
          "name": "F#3",
          "midi": 54,
          "time": 102.89479166666652,
          "velocity": 0.4645669291338583,
          "duration": 0.6864583333333201
        },
        {
          "name": "E3",
          "midi": 52,
          "time": 103.19687499999985,
          "velocity": 0.30708661417322836,
          "duration": 0.31458333333333144
        },
        {
          "name": "G1",
          "midi": 31,
          "time": 103.74374999999984,
          "velocity": 0.6377952755905512,
          "duration": 1.6500000000000057
        },
        {
          "name": "D2",
          "midi": 38,
          "time": 103.7666666666665,
          "velocity": 0.3858267716535433,
          "duration": 0.42916666666666003
        },
        {
          "name": "F#3",
          "midi": 54,
          "time": 103.80208333333316,
          "velocity": 0.44881889763779526,
          "duration": 0.42916666666666003
        },
        {
          "name": "D3",
          "midi": 50,
          "time": 104.11562499999982,
          "velocity": 0.36220472440944884,
          "duration": 0.11562499999999432
        },
        {
          "name": "F#3",
          "midi": 54,
          "time": 104.39374999999981,
          "velocity": 0.31496062992125984,
          "duration": 0.5802083333333456
        },
        {
          "name": "D2",
          "midi": 38,
          "time": 104.42916666666648,
          "velocity": 0.3464566929133858,
          "duration": 0.13958333333333428
        },
        {
          "name": "D3",
          "midi": 50,
          "time": 104.81145833333315,
          "velocity": 0.31496062992125984,
          "duration": 0.3364583333333542
        },
        {
          "name": "A3",
          "midi": 57,
          "time": 104.82395833333315,
          "velocity": 0.28346456692913385,
          "duration": 0.16250000000000853
        },
        {
          "name": "A3",
          "midi": 57,
          "time": 104.9979166666665,
          "velocity": 0.4566929133858268,
          "duration": 0.13958333333333428
        },
        {
          "name": "B3",
          "midi": 59,
          "time": 105.23020833333317,
          "velocity": 0.48031496062992124,
          "duration": 0.08229166666667709
        },
        {
          "name": "D2",
          "midi": 38,
          "time": 105.23020833333317,
          "velocity": 0.3700787401574803,
          "duration": 0.10625000000001705
        },
        {
          "name": "F#3",
          "midi": 54,
          "time": 105.2416666666665,
          "velocity": 0.4015748031496063,
          "duration": 0.1291666666666771
        },
        {
          "name": "D2",
          "midi": 38,
          "time": 105.54479166666651,
          "velocity": 0.3858267716535433,
          "duration": 0.16249999999999432
        },
        {
          "name": "D3",
          "midi": 50,
          "time": 105.54479166666651,
          "velocity": 0.33858267716535434,
          "duration": 0.09270833333333428
        },
        {
          "name": "G1",
          "midi": 31,
          "time": 105.59062499999985,
          "velocity": 0.6850393700787402,
          "duration": 0.9177083333333229
        },
        {
          "name": "B3",
          "midi": 59,
          "time": 105.68437499999985,
          "velocity": 0.4409448818897638,
          "duration": 0.1510416666666572
        },
        {
          "name": "B3",
          "midi": 59,
          "time": 106.04374999999983,
          "velocity": 0.3937007874015748,
          "duration": 0.08124999999999716
        },
        {
          "name": "B3",
          "midi": 59,
          "time": 106.13645833333317,
          "velocity": 0.5354330708661418,
          "duration": 0.18541666666666856
        },
        {
          "name": "G1",
          "midi": 31,
          "time": 106.6822916666665,
          "velocity": 0.6062992125984252,
          "duration": 0.5458333333333201
        },
        {
          "name": "D2",
          "midi": 38,
          "time": 106.7635416666665,
          "velocity": 0.4566929133858268,
          "duration": 0.11562499999999432
        },
        {
          "name": "B3",
          "midi": 59,
          "time": 106.90312499999983,
          "velocity": 0.4015748031496063,
          "duration": 0.2552083333333286
        },
        {
          "name": "F#3",
          "midi": 54,
          "time": 106.93749999999983,
          "velocity": 0.28346456692913385,
          "duration": 0.18541666666666856
        },
        {
          "name": "D2",
          "midi": 38,
          "time": 107.40312499999982,
          "velocity": 0.4330708661417323,
          "duration": 0.42916666666666003
        },
        {
          "name": "G1",
          "midi": 31,
          "time": 107.42708333333316,
          "velocity": 0.6220472440944882,
          "duration": 0.4531249999999858
        },
        {
          "name": "A3",
          "midi": 57,
          "time": 107.54270833333315,
          "velocity": 0.36220472440944884,
          "duration": 0.20937499999999432
        },
        {
          "name": "D3",
          "midi": 50,
          "time": 107.60104166666649,
          "velocity": 0.33070866141732286,
          "duration": 0.06979166666666003
        },
        {
          "name": "A3",
          "midi": 57,
          "time": 107.75208333333315,
          "velocity": 0.4330708661417323,
          "duration": 0.9052083333333201
        },
        {
          "name": "D2",
          "midi": 38,
          "time": 108.04166666666647,
          "velocity": 0.3543307086614173,
          "duration": 0.20937499999999432
        },
        {
          "name": "G1",
          "midi": 31,
          "time": 108.04166666666647,
          "velocity": 0.6850393700787402,
          "duration": 0.9989583333333201
        },
        {
          "name": "A3",
          "midi": 57,
          "time": 108.65729166666647,
          "velocity": 0.5275590551181102,
          "duration": 0.16249999999999432
        },
        {
          "name": "D2",
          "midi": 38,
          "time": 108.85520833333312,
          "velocity": 0.4330708661417323,
          "duration": 0.1510416666666714
        },
        {
          "name": "B1",
          "midi": 35,
          "time": 109.2374999999998,
          "velocity": 0.7165354330708661,
          "duration": 0.7791666666666686
        },
        {
          "name": "D4",
          "midi": 62,
          "time": 109.64583333333313,
          "velocity": 0.41732283464566927,
          "duration": 0.12812499999999716
        },
        {
          "name": "B3",
          "midi": 59,
          "time": 109.76145833333312,
          "velocity": 0.3543307086614173,
          "duration": 0.13958333333333428
        },
        {
          "name": "F#3",
          "midi": 54,
          "time": 109.77291666666646,
          "velocity": 0.3228346456692913,
          "duration": 0.17395833333333144
        },
        {
          "name": "A1",
          "midi": 33,
          "time": 109.97083333333313,
          "velocity": 0.3700787401574803,
          "duration": 0.08124999999999716
        },
        {
          "name": "E3",
          "midi": 52,
          "time": 110.01666666666647,
          "velocity": 0.3858267716535433,
          "duration": 0.6156249999999943
        },
        {
          "name": "A1",
          "midi": 33,
          "time": 110.05208333333313,
          "velocity": 0.7007874015748031,
          "duration": 0.8708333333333229
        },
        {
          "name": "F#3",
          "midi": 54,
          "time": 110.08645833333313,
          "velocity": 0.4094488188976378,
          "duration": 0.32500000000000284
        },
        {
          "name": "A4",
          "midi": 69,
          "time": 110.3187499999998,
          "velocity": 0.2992125984251969,
          "duration": 0.24375000000000568
        },
        {
          "name": "A3",
          "midi": 57,
          "time": 110.33020833333313,
          "velocity": 0.33858267716535434,
          "duration": 0.12812499999999716
        },
        {
          "name": "F#3",
          "midi": 54,
          "time": 110.59791666666646,
          "velocity": 0.48031496062992124,
          "duration": 0.2552083333333286
        },
        {
          "name": "D2",
          "midi": 38,
          "time": 110.98020833333312,
          "velocity": 0.4330708661417323,
          "duration": 0.06979166666666003
        },
        {
          "name": "G1",
          "midi": 31,
          "time": 111.02708333333312,
          "velocity": 0.6377952755905512,
          "duration": 1.6270833333333314
        },
        {
          "name": "D2",
          "midi": 38,
          "time": 111.06249999999979,
          "velocity": 0.4566929133858268,
          "duration": 0.41875000000000284
        },
        {
          "name": "A3",
          "midi": 57,
          "time": 111.20104166666646,
          "velocity": 0.3228346456692913,
          "duration": 0.22187499999999716
        },
        {
          "name": "F#3",
          "midi": 54,
          "time": 111.21249999999979,
          "velocity": 0.3228346456692913,
          "duration": 0.2916666666666572
        },
        {
          "name": "B3",
          "midi": 59,
          "time": 111.64374999999978,
          "velocity": 0.4566929133858268,
          "duration": 0.13958333333333428
        },
        {
          "name": "D2",
          "midi": 38,
          "time": 111.69062499999978,
          "velocity": 0.36220472440944884,
          "duration": 0.18541666666666856
        },
        {
          "name": "F#3",
          "midi": 54,
          "time": 111.92291666666645,
          "velocity": 0.36220472440944884,
          "duration": 0.7083333333333428
        },
        {
          "name": "A3",
          "midi": 57,
          "time": 112.03854166666645,
          "velocity": 0.31496062992125984,
          "duration": 0.13958333333333428
        },
        {
          "name": "A3",
          "midi": 57,
          "time": 112.27083333333312,
          "velocity": 0.3937007874015748,
          "duration": 0.19687500000000568
        },
        {
          "name": "D3",
          "midi": 50,
          "time": 112.32916666666645,
          "velocity": 0.36220472440944884,
          "duration": 0.11562499999999432
        },
        {
          "name": "D2",
          "midi": 38,
          "time": 112.45624999999978,
          "velocity": 0.3464566929133858,
          "duration": 0.1510416666666714
        },
        {
          "name": "C#4",
          "midi": 61,
          "time": 112.72395833333312,
          "velocity": 0.33070866141732286,
          "duration": 0.09270833333333428
        },
        {
          "name": "D2",
          "midi": 38,
          "time": 112.81666666666645,
          "velocity": 0.4330708661417323,
          "duration": 0.19687500000000568
        },
        {
          "name": "G1",
          "midi": 31,
          "time": 112.92083333333312,
          "velocity": 0.7086614173228346,
          "duration": 0.8604166666666515
        },
        {
          "name": "B3",
          "midi": 59,
          "time": 112.93229166666646,
          "velocity": 0.48031496062992124,
          "duration": 0.23229166666666856
        },
        {
          "name": "D3",
          "midi": 50,
          "time": 113.18749999999979,
          "velocity": 0.36220472440944884,
          "duration": 0.08229166666666288
        },
        {
          "name": "B3",
          "midi": 59,
          "time": 113.38645833333311,
          "velocity": 0.5118110236220472,
          "duration": 0.2552083333333286
        },
        {
          "name": "F#3",
          "midi": 54,
          "time": 113.64166666666644,
          "velocity": 0.29133858267716534,
          "duration": 0.12812499999999716
        },
        {
          "name": "E4",
          "midi": 64,
          "time": 113.8739583333331,
          "velocity": 0.4094488188976378,
          "duration": 0.09270833333333428
        },
        {
          "name": "G1",
          "midi": 31,
          "time": 113.97916666666644,
          "velocity": 0.6535433070866141,
          "duration": 0.5104166666666572
        },
        {
          "name": "D2",
          "midi": 38,
          "time": 113.97916666666644,
          "velocity": 0.3779527559055118,
          "duration": 0.11562499999999432
        },
        {
          "name": "F#3",
          "midi": 54,
          "time": 114.1177083333331,
          "velocity": 0.4409448818897638,
          "duration": 0.3135416666666657
        },
        {
          "name": "B3",
          "midi": 59,
          "time": 114.1989583333331,
          "velocity": 0.4251968503937008,
          "duration": 0.2906250000000057
        },
        {
          "name": "C#4",
          "midi": 61,
          "time": 114.62916666666644,
          "velocity": 0.31496062992125984,
          "duration": 0.16250000000002274
        },
        {
          "name": "E3",
          "midi": 52,
          "time": 114.64062499999977,
          "velocity": 0.33858267716535434,
          "duration": 0.32500000000003126
        },
        {
          "name": "A1",
          "midi": 33,
          "time": 114.65208333333311,
          "velocity": 0.7007874015748031,
          "duration": 0.5343750000000256
        },
        {
          "name": "A2",
          "midi": 45,
          "time": 114.71041666666645,
          "velocity": 0.33858267716535434,
          "duration": 0.06979166666667425
        },
        {
          "name": "F#3",
          "midi": 54,
          "time": 114.76770833333312,
          "velocity": 0.36220472440944884,
          "duration": 0.1968750000000199
        },
        {
          "name": "A3",
          "midi": 57,
          "time": 114.84895833333313,
          "velocity": 0.33858267716535434,
          "duration": 0.1041666666666714
        },
        {
          "name": "A3",
          "midi": 57,
          "time": 115.03541666666646,
          "velocity": 0.3543307086614173,
          "duration": 0.2916666666666714
        },
        {
          "name": "A2",
          "midi": 45,
          "time": 115.0468749999998,
          "velocity": 0.4015748031496063,
          "duration": 0.11562499999999432
        },
        {
          "name": "E3",
          "midi": 52,
          "time": 115.11666666666646,
          "velocity": 0.4094488188976378,
          "duration": 0.06979166666667425
        },
        {
          "name": "A3",
          "midi": 57,
          "time": 115.32708333333314,
          "velocity": 0.4094488188976378,
          "duration": 0.18541666666666856
        },
        {
          "name": "A1",
          "midi": 33,
          "time": 115.40833333333313,
          "velocity": 0.6220472440944882,
          "duration": 0.1041666666666714
        },
        {
          "name": "A1",
          "midi": 33,
          "time": 115.5124999999998,
          "velocity": 0.7480314960629921,
          "duration": 0.8239583333333371
        },
        {
          "name": "F#4",
          "midi": 66,
          "time": 115.66354166666648,
          "velocity": 0.36220472440944884,
          "duration": 0.06979166666666003
        },
        {
          "name": "F#3",
          "midi": 54,
          "time": 115.74479166666647,
          "velocity": 0.2755905511811024,
          "duration": 0.20937500000000853
        },
        {
          "name": "E3",
          "midi": 52,
          "time": 115.75624999999981,
          "velocity": 0.2755905511811024,
          "duration": 0.18541666666666856
        },
        {
          "name": "E4",
          "midi": 64,
          "time": 115.89583333333314,
          "velocity": 0.4566929133858268,
          "duration": 0.13958333333333428
        },
        {
          "name": "A3",
          "midi": 57,
          "time": 116.03541666666648,
          "velocity": 0.3700787401574803,
          "duration": 0.24374999999999147
        },
        {
          "name": "F#3",
          "midi": 54,
          "time": 116.19791666666647,
          "velocity": 0.36220472440944884,
          "duration": 0.08124999999999716
        },
        {
          "name": "B1",
          "midi": 35,
          "time": 116.49895833333314,
          "velocity": 0.6535433070866141,
          "duration": 0.11562499999999432
        },
        {
          "name": "B1",
          "midi": 35,
          "time": 116.6156249999998,
          "velocity": 0.6535433070866141,
          "duration": 0.8020833333333286
        },
        {
          "name": "F#3",
          "midi": 54,
          "time": 116.66145833333313,
          "velocity": 0.33858267716535434,
          "duration": 0.546875
        },
        {
          "name": "D4",
          "midi": 62,
          "time": 116.9406249999998,
          "velocity": 0.3543307086614173,
          "duration": 0.16249999999999432
        },
        {
          "name": "A1",
          "midi": 33,
          "time": 117.24374999999979,
          "velocity": 0.4330708661417323,
          "duration": 0.06979166666667425
        },
        {
          "name": "A2",
          "midi": 45,
          "time": 117.28958333333313,
          "velocity": 0.2440944881889764,
          "duration": 0.1510416666666572
        },
        {
          "name": "A1",
          "midi": 33,
          "time": 117.31354166666647,
          "velocity": 0.7322834645669292,
          "duration": 0.859375
        },
        {
          "name": "E3",
          "midi": 52,
          "time": 117.33645833333313,
          "velocity": 0.2992125984251969,
          "duration": 0.7541666666666629
        },
        {
          "name": "F#3",
          "midi": 54,
          "time": 117.34791666666646,
          "velocity": 0.44881889763779526,
          "duration": 0.4531249999999858
        },
        {
          "name": "F#3",
          "midi": 54,
          "time": 117.81249999999979,
          "velocity": 0.5275590551181102,
          "duration": 0.33645833333333997
        },
        {
          "name": "D3",
          "midi": 50,
          "time": 118.24166666666646,
          "velocity": 0.4330708661417323,
          "duration": 0.1041666666666714
        },
        {
          "name": "G1",
          "midi": 31,
          "time": 118.2999999999998,
          "velocity": 0.6299212598425197,
          "duration": 2.776041666666657
        },
        {
          "name": "D2",
          "midi": 38,
          "time": 118.2999999999998,
          "velocity": 0.3779527559055118,
          "duration": 0.42916666666666003
        },
        {
          "name": "F#3",
          "midi": 54,
          "time": 118.46249999999979,
          "velocity": 0.3779527559055118,
          "duration": 0.2666666666666657
        },
        {
          "name": "C#4",
          "midi": 61,
          "time": 118.76458333333312,
          "velocity": 0.2992125984251969,
          "duration": 0.24374999999999147
        },
        {
          "name": "F#3",
          "midi": 54,
          "time": 118.97395833333312,
          "velocity": 0.28346456692913385,
          "duration": 0.23333333333333428
        },
        {
          "name": "D2",
          "midi": 38,
          "time": 118.98541666666645,
          "velocity": 0.33070866141732286,
          "duration": 0.11562499999999432
        },
        {
          "name": "F#3",
          "midi": 54,
          "time": 119.35833333333312,
          "velocity": 0.33070866141732286,
          "duration": 0.18541666666666856
        },
        {
          "name": "A3",
          "midi": 57,
          "time": 119.55520833333313,
          "velocity": 0.5039370078740157,
          "duration": 0.40625
        },
        {
          "name": "D3",
          "midi": 50,
          "time": 119.57812499999979,
          "velocity": 0.3543307086614173,
          "duration": 0.33645833333333997
        },
        {
          "name": "F#3",
          "midi": 54,
          "time": 119.72916666666646,
          "velocity": 0.4015748031496063,
          "duration": 0.19687500000000568
        },
        {
          "name": "D2",
          "midi": 38,
          "time": 119.72916666666646,
          "velocity": 0.3700787401574803,
          "duration": 0.13958333333333428
        },
        {
          "name": "D3",
          "midi": 50,
          "time": 120.05416666666646,
          "velocity": 0.33858267716535434,
          "duration": 0.08124999999999716
        },
        {
          "name": "D2",
          "midi": 38,
          "time": 120.13541666666646,
          "velocity": 0.33070866141732286,
          "duration": 0.08124999999999716
        },
        {
          "name": "B3",
          "midi": 59,
          "time": 120.18229166666646,
          "velocity": 0.4094488188976378,
          "duration": 0.13958333333333428
        },
        {
          "name": "D3",
          "midi": 50,
          "time": 120.41458333333313,
          "velocity": 0.2992125984251969,
          "duration": 0.17395833333333144
        },
        {
          "name": "F#3",
          "midi": 54,
          "time": 120.44895833333312,
          "velocity": 0.3779527559055118,
          "duration": 0.22083333333333144
        },
        {
          "name": "B3",
          "midi": 59,
          "time": 120.57708333333312,
          "velocity": 0.41732283464566927,
          "duration": 0.23229166666666856
        },
        {
          "name": "G1",
          "midi": 31,
          "time": 121.21666666666646,
          "velocity": 0.6141732283464567,
          "duration": 0.557291666666643
        },
        {
          "name": "D2",
          "midi": 38,
          "time": 121.22812499999979,
          "velocity": 0.4251968503937008,
          "duration": 0.12812499999999716
        },
        {
          "name": "B3",
          "midi": 59,
          "time": 121.37916666666645,
          "velocity": 0.3937007874015748,
          "duration": 0.3135416666666515
        },
        {
          "name": "F#3",
          "midi": 54,
          "time": 121.41458333333311,
          "velocity": 0.3464566929133858,
          "duration": 0.16249999999999432
        },
        {
          "name": "A3",
          "midi": 57,
          "time": 121.86666666666643,
          "velocity": 0.36220472440944884,
          "duration": 0.06979166666666003
        },
        {
          "name": "D2",
          "midi": 38,
          "time": 121.94791666666643,
          "velocity": 0.4645669291338583,
          "duration": 0.42916666666667425
        },
        {
          "name": "G1",
          "midi": 31,
          "time": 122.00624999999977,
          "velocity": 0.6377952755905512,
          "duration": 1.5916666666666544
        },
        {
          "name": "A3",
          "midi": 57,
          "time": 122.0645833333331,
          "velocity": 0.33070866141732286,
          "duration": 0.37187500000000284
        },
        {
          "name": "F#3",
          "midi": 54,
          "time": 122.29687499999977,
          "velocity": 0.3543307086614173,
          "duration": 0.09270833333333428
        },
        {
          "name": "A3",
          "midi": 57,
          "time": 122.57499999999978,
          "velocity": 0.3543307086614173,
          "duration": 0.09270833333332007
        },
        {
          "name": "D2",
          "midi": 38,
          "time": 122.59791666666644,
          "velocity": 0.4094488188976378,
          "duration": 0.1510416666666572
        },
        {
          "name": "A3",
          "midi": 57,
          "time": 122.9927083333331,
          "velocity": 0.3543307086614173,
          "duration": 0.26874999999999716
        },
        {
          "name": "D3",
          "midi": 50,
          "time": 123.2614583333331,
          "velocity": 0.3700787401574803,
          "duration": 0.16249999999999432
        },
        {
          "name": "A3",
          "midi": 57,
          "time": 123.27291666666643,
          "velocity": 0.4330708661417323,
          "duration": 0.08124999999999716
        },
        {
          "name": "B3",
          "midi": 59,
          "time": 123.42395833333309,
          "velocity": 0.4015748031496063,
          "duration": 0.1510416666666714
        },
        {
          "name": "D2",
          "midi": 38,
          "time": 123.42395833333309,
          "velocity": 0.4409448818897638,
          "duration": 0.13958333333333428
        },
        {
          "name": "D4",
          "midi": 62,
          "time": 123.67916666666642,
          "velocity": 0.48031496062992124,
          "duration": 0.24374999999999147
        },
        {
          "name": "B2",
          "midi": 47,
          "time": 123.72604166666642,
          "velocity": 0.36220472440944884,
          "duration": 0.08124999999999716
        },
        {
          "name": "B1",
          "midi": 35,
          "time": 123.76041666666642,
          "velocity": 0.5511811023622047,
          "duration": 0.06979166666666003
        },
        {
          "name": "B1",
          "midi": 35,
          "time": 123.83020833333308,
          "velocity": 0.7322834645669292,
          "duration": 0.7541666666666629
        },
        {
          "name": "F#3",
          "midi": 54,
          "time": 123.88854166666641,
          "velocity": 0.31496062992125984,
          "duration": 0.08124999999999716
        },
        {
          "name": "F#3",
          "midi": 54,
          "time": 124.1791666666664,
          "velocity": 0.30708661417322836,
          "duration": 0.2906250000000057
        },
        {
          "name": "D4",
          "midi": 62,
          "time": 124.22499999999974,
          "velocity": 0.3779527559055118,
          "duration": 0.1041666666666714
        },
        {
          "name": "B3",
          "midi": 59,
          "time": 124.32916666666641,
          "velocity": 0.3228346456692913,
          "duration": 0.13958333333333428
        },
        {
          "name": "A1",
          "midi": 33,
          "time": 124.5041666666664,
          "velocity": 0.29133858267716534,
          "duration": 0.06979166666666003
        },
        {
          "name": "A1",
          "midi": 33,
          "time": 124.5729166666664,
          "velocity": 0.7086614173228346,
          "duration": 0.8718750000000028
        },
        {
          "name": "C#4",
          "midi": 61,
          "time": 124.5854166666664,
          "velocity": 0.4094488188976378,
          "duration": 0.12812499999999716
        },
        {
          "name": "C#4",
          "midi": 61,
          "time": 124.72395833333307,
          "velocity": 0.4251968503937008,
          "duration": 0.17395833333333144
        },
        {
          "name": "F#3",
          "midi": 54,
          "time": 124.72395833333307,
          "velocity": 0.4330708661417323,
          "duration": 0.23229166666666856
        },
        {
          "name": "E3",
          "midi": 52,
          "time": 124.80520833333307,
          "velocity": 0.3700787401574803,
          "duration": 0.5697916666666742
        },
        {
          "name": "B3",
          "midi": 59,
          "time": 124.81770833333307,
          "velocity": 0.3779527559055118,
          "duration": 0.24375000000000568
        },
        {
          "name": "F#3",
          "midi": 54,
          "time": 125.08437499999974,
          "velocity": 0.4330708661417323,
          "duration": 0.26875000000001137
        },
        {
          "name": "C#4",
          "midi": 61,
          "time": 125.20208333333308,
          "velocity": 0.3937007874015748,
          "duration": 0.09270833333333428
        },
        {
          "name": "D2",
          "midi": 38,
          "time": 125.5385416666664,
          "velocity": 0.4645669291338583,
          "duration": 0.08124999999999716
        },
        {
          "name": "G1",
          "midi": 31,
          "time": 125.58437499999974,
          "velocity": 0.6299212598425197,
          "duration": 1.603124999999963
        },
        {
          "name": "D2",
          "midi": 38,
          "time": 125.63124999999974,
          "velocity": 0.4566929133858268,
          "duration": 0.2906249999999915
        },
        {
          "name": "F#3",
          "midi": 54,
          "time": 125.71249999999974,
          "velocity": 0.3543307086614173,
          "duration": 0.22083333333333144
        },
        {
          "name": "A3",
          "midi": 57,
          "time": 125.7354166666664,
          "velocity": 0.36220472440944884,
          "duration": 0.37187500000000284
        },
        {
          "name": "D2",
          "midi": 38,
          "time": 125.92187499999973,
          "velocity": 0.41732283464566927,
          "duration": 0.1510416666666714
        },
        {
          "name": "D2",
          "midi": 38,
          "time": 126.24687499999973,
          "velocity": 0.33858267716535434,
          "duration": 0.12812499999999716
        },
        {
          "name": "B3",
          "midi": 59,
          "time": 126.39791666666639,
          "velocity": 0.4251968503937008,
          "duration": 0.13958333333333428
        },
        {
          "name": "D3",
          "midi": 50,
          "time": 126.44374999999972,
          "velocity": 0.3228346456692913,
          "duration": 0.48749999999999716
        },
        {
          "name": "A3",
          "midi": 57,
          "time": 126.57187499999972,
          "velocity": 0.25984251968503935,
          "duration": 0.06979166666666003
        },
        {
          "name": "A3",
          "midi": 57,
          "time": 126.64166666666638,
          "velocity": 0.44881889763779526,
          "duration": 0.453125
        },
        {
          "name": "F#3",
          "midi": 54,
          "time": 127.11770833333304,
          "velocity": 0.3543307086614173,
          "duration": 0.2562499999999943
        },
        {
          "name": "D3",
          "midi": 50,
          "time": 127.3156249999997,
          "velocity": 0.44881889763779526,
          "duration": 0.13958333333333428
        },
        {
          "name": "F#3",
          "midi": 54,
          "time": 127.38541666666637,
          "velocity": 0.4015748031496063,
          "duration": 0.39479166666664867
        },
        {
          "name": "G1",
          "midi": 31,
          "time": 127.40833333333303,
          "velocity": 0.6771653543307087,
          "duration": 0.9052083333333059
        },
        {
          "name": "B3",
          "midi": 59,
          "time": 127.40833333333303,
          "velocity": 0.36220472440944884,
          "duration": 0.23229166666665435
        },
        {
          "name": "D2",
          "midi": 38,
          "time": 127.43229166666637,
          "velocity": 0.36220472440944884,
          "duration": 0.09270833333332007
        },
        {
          "name": "F#3",
          "midi": 54,
          "time": 127.78020833333302,
          "velocity": 0.33858267716535434,
          "duration": 0.20937500000000853
        },
        {
          "name": "E3",
          "midi": 52,
          "time": 127.79166666666636,
          "velocity": 0.4566929133858268,
          "duration": 0.3135416666666657
        },
        {
          "name": "B3",
          "midi": 59,
          "time": 127.94270833333303,
          "velocity": 0.36220472440944884,
          "duration": 0.11562499999999432
        },
        {
          "name": "E3",
          "midi": 52,
          "time": 128.20937499999968,
          "velocity": 0.4409448818897638,
          "duration": 0.11562499999999432
        },
        {
          "name": "E3",
          "midi": 52,
          "time": 128.46562499999968,
          "velocity": 0.36220472440944884,
          "duration": 0.09270833333334849
        },
        {
          "name": "B3",
          "midi": 59,
          "time": 128.477083333333,
          "velocity": 0.3858267716535433,
          "duration": 0.5572916666666572
        },
        {
          "name": "D2",
          "midi": 38,
          "time": 128.4999999999997,
          "velocity": 0.4251968503937008,
          "duration": 0.16249999999999432
        },
        {
          "name": "G1",
          "midi": 31,
          "time": 128.51145833333302,
          "velocity": 0.6220472440944882,
          "duration": 1.278125000000017
        },
        {
          "name": "F#3",
          "midi": 54,
          "time": 128.66249999999968,
          "velocity": 0.3858267716535433,
          "duration": 0.20937499999999432
        },
        {
          "name": "F#3",
          "midi": 54,
          "time": 129.11562499999968,
          "velocity": 0.41732283464566927,
          "duration": 0.19895833333333712
        },
        {
          "name": "D3",
          "midi": 50,
          "time": 129.39583333333303,
          "velocity": 0.5354330708661418,
          "duration": 0.5802083333333314
        },
        {
          "name": "E3",
          "midi": 52,
          "time": 129.99895833333304,
          "velocity": 0.5275590551181102,
          "duration": 0.24375000000000568
        },
        {
          "name": "E3",
          "midi": 52,
          "time": 130.24270833333304,
          "velocity": 0.5748031496062992,
          "duration": 0.40625
        },
        {
          "name": "C#4",
          "midi": 61,
          "time": 130.66041666666638,
          "velocity": 0.4015748031496063,
          "duration": 0.11562499999999432
        },
        {
          "name": "B1",
          "midi": 35,
          "time": 131.03229166666637,
          "velocity": 0.6850393700787402,
          "duration": 0.09375
        },
        {
          "name": "B1",
          "midi": 35,
          "time": 131.12604166666637,
          "velocity": 0.7165354330708661,
          "duration": 0.7197916666666799
        },
        {
          "name": "A1",
          "midi": 33,
          "time": 131.7999999999997,
          "velocity": 0.6850393700787402,
          "duration": 0.9177083333333087
        },
        {
          "name": "E3",
          "midi": 52,
          "time": 131.8343749999997,
          "velocity": 0.2992125984251969,
          "duration": 0.10416666666665719
        },
        {
          "name": "F#3",
          "midi": 54,
          "time": 131.95104166666636,
          "velocity": 0.41732283464566927,
          "duration": 0.27812499999998863
        },
        {
          "name": "E3",
          "midi": 52,
          "time": 132.27604166666634,
          "velocity": 0.3700787401574803,
          "duration": 0.20937499999999432
        },
        {
          "name": "F#3",
          "midi": 54,
          "time": 132.36874999999966,
          "velocity": 0.44881889763779526,
          "duration": 0.27812500000001705
        },
        {
          "name": "A3",
          "midi": 57,
          "time": 132.75208333333302,
          "velocity": 0.3937007874015748,
          "duration": 0.3958333333333428
        },
        {
          "name": "D2",
          "midi": 38,
          "time": 132.83333333333303,
          "velocity": 0.3937007874015748,
          "duration": 0.46562500000001705
        },
        {
          "name": "G1",
          "midi": 31,
          "time": 132.8562499999997,
          "velocity": 0.6535433070866141,
          "duration": 1.6385416666666401
        },
        {
          "name": "F#3",
          "midi": 54,
          "time": 133.0656249999997,
          "velocity": 0.33858267716535434,
          "duration": 0.21041666666667425
        },
        {
          "name": "F#3",
          "midi": 54,
          "time": 133.42708333333306,
          "velocity": 0.4409448818897638,
          "duration": 0.22083333333333144
        },
        {
          "name": "D2",
          "midi": 38,
          "time": 133.51979166666638,
          "velocity": 0.3228346456692913,
          "duration": 0.06979166666667425
        },
        {
          "name": "F#3",
          "midi": 54,
          "time": 133.65833333333305,
          "velocity": 0.4330708661417323,
          "duration": 0.3020833333333144
        },
        {
          "name": "A3",
          "midi": 57,
          "time": 133.9031249999997,
          "velocity": 0.3858267716535433,
          "duration": 0.13958333333332007
        },
        {
          "name": "F#3",
          "midi": 54,
          "time": 133.96041666666636,
          "velocity": 0.4645669291338583,
          "duration": 0.3604166666666515
        },
        {
          "name": "D2",
          "midi": 38,
          "time": 134.28541666666635,
          "velocity": 0.41732283464566927,
          "duration": 0.12812499999998295
        },
        {
          "name": "F#3",
          "midi": 54,
          "time": 134.320833333333,
          "velocity": 0.41732283464566927,
          "duration": 0.453125
        },
        {
          "name": "G1",
          "midi": 31,
          "time": 134.70416666666634,
          "velocity": 0.6929133858267716,
          "duration": 0.8833333333333542
        },
        {
          "name": "D3",
          "midi": 50,
          "time": 134.98229166666636,
          "velocity": 0.3543307086614173,
          "duration": 0.10416666666668561
        },
        {
          "name": "F#3",
          "midi": 54,
          "time": 135.05208333333303,
          "velocity": 0.5118110236220472,
          "duration": 0.26875000000001137
        },
        {
          "name": "B3",
          "midi": 59,
          "time": 135.06354166666637,
          "velocity": 0.3937007874015748,
          "duration": 0.3031249999999943
        },
        {
          "name": "F#3",
          "midi": 54,
          "time": 135.48333333333304,
          "velocity": 0.3858267716535433,
          "duration": 0.6729166666666515
        },
        {
          "name": "G1",
          "midi": 31,
          "time": 135.77291666666636,
          "velocity": 0.6299212598425197,
          "duration": 0.3479166666666629
        },
        {
          "name": "G1",
          "midi": 31,
          "time": 136.133333333333,
          "velocity": 0.5905511811023622,
          "duration": 0.19687500000000568
        },
        {
          "name": "E3",
          "midi": 52,
          "time": 136.14479166666635,
          "velocity": 0.4015748031496063,
          "duration": 0.08125000000001137
        },
        {
          "name": "F#4",
          "midi": 66,
          "time": 136.43437499999968,
          "velocity": 0.3779527559055118,
          "duration": 0.08125000000001137
        },
        {
          "name": "D3",
          "midi": 50,
          "time": 136.48124999999968,
          "velocity": 0.4015748031496063,
          "duration": 0.08125000000001137
        },
        {
          "name": "D2",
          "midi": 38,
          "time": 136.492708333333,
          "velocity": 0.3228346456692913,
          "duration": 0.4416666666667197
        },
        {
          "name": "G1",
          "midi": 31,
          "time": 136.51666666666637,
          "velocity": 0.6220472440944882,
          "duration": 0.4531250000000284
        },
        {
          "name": "F#3",
          "midi": 54,
          "time": 136.51666666666637,
          "velocity": 0.3543307086614173,
          "duration": 0.18541666666666856
        },
        {
          "name": "A3",
          "midi": 57,
          "time": 136.67916666666636,
          "velocity": 0.33858267716535434,
          "duration": 0.15104166666668561
        },
        {
          "name": "F#4",
          "midi": 66,
          "time": 136.85312499999972,
          "velocity": 0.3543307086614173,
          "duration": 0.15104166666668561
        },
        {
          "name": "F#3",
          "midi": 54,
          "time": 136.85312499999972,
          "velocity": 0.41732283464566927,
          "duration": 0.16250000000002274
        },
        {
          "name": "G1",
          "midi": 31,
          "time": 137.13229166666642,
          "velocity": 0.6692913385826772,
          "duration": 1.0104166666666288
        },
        {
          "name": "D2",
          "midi": 38,
          "time": 137.2020833333331,
          "velocity": 0.31496062992125984,
          "duration": 0.06979166666667425
        },
        {
          "name": "A3",
          "midi": 57,
          "time": 137.59687499999976,
          "velocity": 0.33070866141732286,
          "duration": 0.10416666666665719
        },
        {
          "name": "E3",
          "midi": 52,
          "time": 137.6083333333331,
          "velocity": 0.3228346456692913,
          "duration": 0.29062499999994884
        },
        {
          "name": "A3",
          "midi": 57,
          "time": 137.7135416666664,
          "velocity": 0.36220472440944884,
          "duration": 0.09270833333332007
        },
        {
          "name": "D2",
          "midi": 38,
          "time": 138.01562499999972,
          "velocity": 0.4409448818897638,
          "duration": 0.09270833333332007
        },
        {
          "name": "B1",
          "midi": 35,
          "time": 138.36354166666638,
          "velocity": 0.7244094488188977,
          "duration": 0.720833333333303
        },
        {
          "name": "D4",
          "midi": 62,
          "time": 138.36354166666638,
          "velocity": 0.33070866141732286,
          "duration": 0.4062499999999716
        },
        {
          "name": "F#3",
          "midi": 54,
          "time": 138.4906249999997,
          "velocity": 0.33070866141732286,
          "duration": 0.09270833333332007
        },
        {
          "name": "D4",
          "midi": 62,
          "time": 138.7812499999997,
          "velocity": 0.41732283464566927,
          "duration": 0.2666666666666515
        },
        {
          "name": "F#3",
          "midi": 54,
          "time": 138.89791666666636,
          "velocity": 0.36220472440944884,
          "duration": 0.10416666666665719
        },
        {
          "name": "A1",
          "midi": 33,
          "time": 139.10729166666636,
          "velocity": 0.6929133858267716,
          "duration": 0.8708333333333655
        },
        {
          "name": "F#3",
          "midi": 54,
          "time": 139.15416666666636,
          "velocity": 0.41732283464566927,
          "duration": 0.48750000000001137
        },
        {
          "name": "E3",
          "midi": 52,
          "time": 139.6187499999997,
          "velocity": 0.3543307086614173,
          "duration": 0.06979166666667425
        },
        {
          "name": "F#3",
          "midi": 54,
          "time": 139.6531249999997,
          "velocity": 0.5354330708661418,
          "duration": 0.3020833333333428
        },
        {
          "name": "F#3",
          "midi": 54,
          "time": 140.11770833333304,
          "velocity": 0.4251968503937008,
          "duration": 0.48750000000001137
        },
        {
          "name": "D2",
          "midi": 38,
          "time": 140.14062499999972,
          "velocity": 0.3779527559055118,
          "duration": 0.48750000000001137
        },
        {
          "name": "A3",
          "midi": 57,
          "time": 140.18749999999972,
          "velocity": 0.3464566929133858,
          "duration": 0.24375000000000568
        },
        {
          "name": "G1",
          "midi": 31,
          "time": 140.22187499999973,
          "velocity": 0.6456692913385826,
          "duration": 1.5333333333333314
        },
        {
          "name": "D3",
          "midi": 50,
          "time": 140.38437499999972,
          "velocity": 0.2992125984251969,
          "duration": 0.19687500000000568
        },
        {
          "name": "A5",
          "midi": 81,
          "time": 140.46562499999973,
          "velocity": 0.30708661417322836,
          "duration": 0.16249999999999432
        },
        {
          "name": "D3",
          "midi": 50,
          "time": 140.75624999999974,
          "velocity": 0.3464566929133858,
          "duration": 0.08125000000001137
        },
        {
          "name": "D2",
          "midi": 38,
          "time": 140.83749999999975,
          "velocity": 0.33070866141732286,
          "duration": 0.11562499999999432
        },
        {
          "name": "F#3",
          "midi": 54,
          "time": 140.9885416666664,
          "velocity": 0.33858267716535434,
          "duration": 0.2447916666666572
        },
        {
          "name": "D3",
          "midi": 50,
          "time": 141.02291666666642,
          "velocity": 0.33070866141732286,
          "duration": 0.4072916666666231
        },
        {
          "name": "A3",
          "midi": 57,
          "time": 141.0822916666664,
          "velocity": 0.2992125984251969,
          "duration": 0.16249999999999432
        },
        {
          "name": "F#4",
          "midi": 66,
          "time": 141.23333333333306,
          "velocity": 0.2677165354330709,
          "duration": 0.1510416666666572
        },
        {
          "name": "F#3",
          "midi": 54,
          "time": 141.2447916666664,
          "velocity": 0.41732283464566927,
          "duration": 0.5104166666666572
        },
        {
          "name": "D2",
          "midi": 38,
          "time": 141.54687499999972,
          "velocity": 0.3858267716535433,
          "duration": 0.12812500000001137
        },
        {
          "name": "D3",
          "midi": 50,
          "time": 141.60520833333305,
          "velocity": 0.30708661417322836,
          "duration": 0.36041666666667993
        },
        {
          "name": "A3",
          "midi": 57,
          "time": 141.65208333333305,
          "velocity": 0.30708661417322836,
          "duration": 0.06979166666667425
        },
        {
          "name": "D2",
          "midi": 38,
          "time": 141.93020833333307,
          "velocity": 0.4566929133858268,
          "duration": 0.18541666666666856
        },
        {
          "name": "B3",
          "midi": 59,
          "time": 141.99999999999974,
          "velocity": 0.3543307086614173,
          "duration": 0.06979166666667425
        },
        {
          "name": "G1",
          "midi": 31,
          "time": 142.01145833333308,
          "velocity": 0.7322834645669292,
          "duration": 0.8708333333333655
        },
        {
          "name": "C#5",
          "midi": 73,
          "time": 142.1854166666664,
          "velocity": 0.3937007874015748,
          "duration": 0.3833333333333542
        },
        {
          "name": "F#3",
          "midi": 54,
          "time": 142.26666666666642,
          "velocity": 0.4881889763779528,
          "duration": 0.2552083333333428
        },
        {
          "name": "B3",
          "midi": 59,
          "time": 142.44062499999976,
          "velocity": 0.4094488188976378,
          "duration": 0.1395833333333485
        },
        {
          "name": "F#3",
          "midi": 54,
          "time": 142.7427083333331,
          "velocity": 0.41732283464566927,
          "duration": 0.19687500000000568
        },
        {
          "name": "E4",
          "midi": 64,
          "time": 142.8708333333331,
          "velocity": 0.3464566929133858,
          "duration": 0.1510416666666572
        },
        {
          "name": "D2",
          "midi": 38,
          "time": 143.03437499999976,
          "velocity": 0.4409448818897638,
          "duration": 0.18541666666664014
        },
        {
          "name": "G1",
          "midi": 31,
          "time": 143.06979166666642,
          "velocity": 0.6614173228346457,
          "duration": 0.5229166666666174
        },
        {
          "name": "F#3",
          "midi": 54,
          "time": 143.17395833333308,
          "velocity": 0.47244094488188976,
          "duration": 0.33645833333329733
        },
        {
          "name": "F#4",
          "midi": 66,
          "time": 143.25520833333306,
          "velocity": 0.3543307086614173,
          "duration": 0.10416666666665719
        },
        {
          "name": "D2",
          "midi": 38,
          "time": 143.3822916666664,
          "velocity": 0.41732283464566927,
          "duration": 0.10416666666665719
        },
        {
          "name": "A1",
          "midi": 33,
          "time": 143.77708333333302,
          "velocity": 0.6929133858267716,
          "duration": 0.4989583333333769
        },
        {
          "name": "F#3",
          "midi": 54,
          "time": 143.8937499999997,
          "velocity": 0.41732283464566927,
          "duration": 0.27812500000001705
        },
        {
          "name": "E3",
          "midi": 52,
          "time": 143.90520833333304,
          "velocity": 0.4015748031496063,
          "duration": 0.11562499999999432
        },
        {
          "name": "E4",
          "midi": 64,
          "time": 143.99791666666636,
          "velocity": 0.3464566929133858,
          "duration": 0.22083333333335986
        },
        {
          "name": "A2",
          "midi": 45,
          "time": 144.10208333333304,
          "velocity": 0.3464566929133858,
          "duration": 0.12812500000001137
        },
        {
          "name": "E3",
          "midi": 52,
          "time": 144.17187499999972,
          "velocity": 0.3543307086614173,
          "duration": 0.08125000000001137
        },
        {
          "name": "A3",
          "midi": 57,
          "time": 144.41562499999972,
          "velocity": 0.3543307086614173,
          "duration": 0.10416666666665719
        },
        {
          "name": "A1",
          "midi": 33,
          "time": 144.43958333333305,
          "velocity": 0.7086614173228346,
          "duration": 0.9760416666666742
        },
        {
          "name": "F#3",
          "midi": 54,
          "time": 144.45104166666638,
          "velocity": 0.28346456692913385,
          "duration": 0.19687500000000568
        },
        {
          "name": "B3",
          "midi": 59,
          "time": 144.76458333333306,
          "velocity": 0.3858267716535433,
          "duration": 0.5822916666666629
        },
        {
          "name": "F#3",
          "midi": 54,
          "time": 144.8916666666664,
          "velocity": 0.3700787401574803,
          "duration": 0.1875
        },
        {
          "name": "D4",
          "midi": 62,
          "time": 145.54374999999973,
          "velocity": 0.36220472440944884,
          "duration": 0.32499999999998863
        },
        {
          "name": "B1",
          "midi": 35,
          "time": 145.58958333333305,
          "velocity": 0.6614173228346457,
          "duration": 0.06979166666667425
        },
        {
          "name": "B2",
          "midi": 47,
          "time": 145.58958333333305,
          "velocity": 0.3464566929133858,
          "duration": 0.06979166666667425
        },
        {
          "name": "B1",
          "midi": 35,
          "time": 145.65937499999973,
          "velocity": 0.7322834645669292,
          "duration": 0.7197916666666515
        },
        {
          "name": "D4",
          "midi": 62,
          "time": 146.00833333333304,
          "velocity": 0.41732283464566927,
          "duration": 0.33645833333332575
        },
        {
          "name": "F#3",
          "midi": 54,
          "time": 146.15833333333305,
          "velocity": 0.4015748031496063,
          "duration": 0.13958333333332007
        },
        {
          "name": "A1",
          "midi": 33,
          "time": 146.37916666666638,
          "velocity": 0.7165354330708661,
          "duration": 0.8833333333332973
        },
        {
          "name": "F#3",
          "midi": 54,
          "time": 146.4031249999997,
          "velocity": 0.4566929133858268,
          "duration": 0.23229166666666856
        },
        {
          "name": "F#3",
          "midi": 54,
          "time": 146.6343749999997,
          "velocity": 0.4881889763779528,
          "duration": 0.5822916666666629
        },
        {
          "name": "E3",
          "midi": 52,
          "time": 146.7281249999997,
          "velocity": 0.3228346456692913,
          "duration": 0.4312500000000057
        },
        {
          "name": "D3",
          "midi": 50,
          "time": 147.35624999999968,
          "velocity": 0.30708661417322836,
          "duration": 0.2906250000000057
        },
        {
          "name": "G1",
          "midi": 31,
          "time": 147.3906249999997,
          "velocity": 0.6377952755905512,
          "duration": 1.6499999999999488
        },
        {
          "name": "D2",
          "midi": 38,
          "time": 147.40208333333302,
          "velocity": 0.4094488188976378,
          "duration": 0.453125
        },
        {
          "name": "F#3",
          "midi": 54,
          "time": 147.42604166666635,
          "velocity": 0.4015748031496063,
          "duration": 0.3947916666666629
        },
        {
          "name": "A3",
          "midi": 57,
          "time": 147.56458333333302,
          "velocity": 0.33070866141732286,
          "duration": 0.09270833333332007
        },
        {
          "name": "D2",
          "midi": 38,
          "time": 148.0874999999997,
          "velocity": 0.3700787401574803,
          "duration": 0.13958333333332007
        },
        {
          "name": "F#3",
          "midi": 54,
          "time": 148.227083333333,
          "velocity": 0.31496062992125984,
          "duration": 0.17395833333333144
        },
        {
          "name": "A3",
          "midi": 57,
          "time": 148.48229166666636,
          "velocity": 0.3543307086614173,
          "duration": 0.06979166666667425
        },
        {
          "name": "F#3",
          "midi": 54,
          "time": 148.6093749999997,
          "velocity": 0.36220472440944884,
          "duration": 0.4072916666666231
        },
        {
          "name": "A3",
          "midi": 57,
          "time": 148.81874999999968,
          "velocity": 0.33858267716535434,
          "duration": 0.18749999999997158
        },
        {
          "name": "D3",
          "midi": 50,
          "time": 148.83020833333302,
          "velocity": 0.3228346456692913,
          "duration": 0.10416666666665719
        },
        {
          "name": "D2",
          "midi": 38,
          "time": 148.85416666666634,
          "velocity": 0.3700787401574803,
          "duration": 0.13958333333332007
        },
        {
          "name": "D2",
          "midi": 38,
          "time": 149.20312499999963,
          "velocity": 0.4094488188976378,
          "duration": 0.16249999999999432
        },
        {
          "name": "G1",
          "midi": 31,
          "time": 149.2260416666663,
          "velocity": 0.7086614173228346,
          "duration": 0.9406250000000114
        },
        {
          "name": "B3",
          "midi": 59,
          "time": 149.2385416666663,
          "velocity": 0.44881889763779526,
          "duration": 0.27812500000001705
        },
        {
          "name": "C#5",
          "midi": 73,
          "time": 149.3885416666663,
          "velocity": 0.33858267716535434,
          "duration": 0.27812500000001705
        },
        {
          "name": "F#3",
          "midi": 54,
          "time": 149.53958333333298,
          "velocity": 0.4251968503937008,
          "duration": 0.24374999999997726
        },
        {
          "name": "B3",
          "midi": 59,
          "time": 149.70208333333298,
          "velocity": 0.4015748031496063,
          "duration": 0.18541666666666856
        },
        {
          "name": "D3",
          "midi": 50,
          "time": 149.71458333333297,
          "velocity": 0.33858267716535434,
          "duration": 0.06979166666667425
        },
        {
          "name": "F#3",
          "midi": 54,
          "time": 150.00416666666632,
          "velocity": 0.41732283464566927,
          "duration": 0.16249999999999432
        },
        {
          "name": "F#3",
          "midi": 54,
          "time": 150.30624999999964,
          "velocity": 0.4566929133858268,
          "duration": 0.48750000000001137
        },
        {
          "name": "G1",
          "midi": 31,
          "time": 150.31770833333297,
          "velocity": 0.6220472440944882,
          "duration": 0.5687499999999943
        },
        {
          "name": "D2",
          "midi": 38,
          "time": 150.34062499999965,
          "velocity": 0.44881889763779526,
          "duration": 0.1510416666666572
        },
        {
          "name": "B3",
          "midi": 59,
          "time": 150.51562499999963,
          "velocity": 0.41732283464566927,
          "duration": 0.26666666666667993
        },
        {
          "name": "D3",
          "midi": 50,
          "time": 150.99270833333296,
          "velocity": 0.3543307086614173,
          "duration": 0.12812500000001137
        },
        {
          "name": "D4",
          "midi": 62,
          "time": 151.0041666666663,
          "velocity": 0.3228346456692913,
          "duration": 0.06979166666667425
        },
        {
          "name": "G1",
          "midi": 31,
          "time": 151.02708333333297,
          "velocity": 0.5354330708661418,
          "duration": 0.8125000000000568
        },
        {
          "name": "D2",
          "midi": 38,
          "time": 151.06249999999963,
          "velocity": 0.33858267716535434,
          "duration": 0.3833333333333542
        },
        {
          "name": "E4",
          "midi": 64,
          "time": 151.22499999999962,
          "velocity": 0.3700787401574803,
          "duration": 0.10416666666668561
        },
        {
          "name": "A3",
          "midi": 57,
          "time": 151.2479166666663,
          "velocity": 0.3700787401574803,
          "duration": 0.19687500000000568
        },
        {
          "name": "D2",
          "midi": 38,
          "time": 151.70104166666633,
          "velocity": 0.33858267716535434,
          "duration": 0.11562500000002274
        },
        {
          "name": "E4",
          "midi": 64,
          "time": 151.71249999999966,
          "velocity": 0.3858267716535433,
          "duration": 0.08125000000001137
        },
        {
          "name": "A3",
          "midi": 57,
          "time": 151.71249999999966,
          "velocity": 0.3543307086614173,
          "duration": 0.08125000000001137
        },
        {
          "name": "G1",
          "midi": 31,
          "time": 151.852083333333,
          "velocity": 0.6929133858267716,
          "duration": 0.8354166666667027
        },
        {
          "name": "A3",
          "midi": 57,
          "time": 152.14166666666634,
          "velocity": 0.33070866141732286,
          "duration": 0.18541666666666856
        },
        {
          "name": "B3",
          "midi": 59,
          "time": 152.45520833333302,
          "velocity": 0.33070866141732286,
          "duration": 0.11562500000002274
        },
        {
          "name": "D2",
          "midi": 38,
          "time": 152.53645833333303,
          "velocity": 0.3858267716535433,
          "duration": 0.09270833333334849
        },
        {
          "name": "B3",
          "midi": 59,
          "time": 152.78020833333304,
          "velocity": 0.3543307086614173,
          "duration": 0.18541666666669698
        },
        {
          "name": "B2",
          "midi": 47,
          "time": 152.79166666666637,
          "velocity": 0.3779527559055118,
          "duration": 0.18750000000002842
        },
        {
          "name": "B1",
          "midi": 35,
          "time": 152.90833333333305,
          "velocity": 0.6850393700787402,
          "duration": 0.8375000000000341
        },
        {
          "name": "D4",
          "midi": 62,
          "time": 152.93124999999972,
          "velocity": 0.28346456692913385,
          "duration": 0.19895833333333712
        },
        {
          "name": "B3",
          "midi": 59,
          "time": 153.1885416666664,
          "velocity": 0.3464566929133858,
          "duration": 0.15104166666668561
        },
        {
          "name": "F#3",
          "midi": 54,
          "time": 153.21145833333307,
          "velocity": 0.3779527559055118,
          "duration": 0.10416666666668561
        },
        {
          "name": "D4",
          "midi": 62,
          "time": 153.28124999999974,
          "velocity": 0.3858267716535433,
          "duration": 0.2906250000000057
        },
        {
          "name": "A1",
          "midi": 33,
          "time": 153.59479166666642,
          "velocity": 0.3937007874015748,
          "duration": 0.08124999999998295
        },
        {
          "name": "E3",
          "midi": 52,
          "time": 153.66354166666642,
          "velocity": 0.31496062992125984,
          "duration": 0.2906250000000057
        },
        {
          "name": "A1",
          "midi": 33,
          "time": 153.6760416666664,
          "velocity": 0.7086614173228346,
          "duration": 0.859375
        },
        {
          "name": "F#3",
          "midi": 54,
          "time": 153.75729166666642,
          "velocity": 0.41732283464566927,
          "duration": 0.7312499999999886
        },
        {
          "name": "E3",
          "midi": 52,
          "time": 154.1864583333331,
          "velocity": 0.3543307086614173,
          "duration": 0.27812499999998863
        },
        {
          "name": "D3",
          "midi": 50,
          "time": 154.61562499999974,
          "velocity": 0.4330708661417323,
          "duration": 0.10416666666665719
        },
        {
          "name": "D2",
          "midi": 38,
          "time": 154.66249999999974,
          "velocity": 0.3779527559055118,
          "duration": 0.4312500000000057
        },
        {
          "name": "G1",
          "midi": 31,
          "time": 154.67395833333308,
          "velocity": 0.6299212598425197,
          "duration": 1.6270833333333599
        },
        {
          "name": "A3",
          "midi": 57,
          "time": 154.73229166666638,
          "velocity": 0.3700787401574803,
          "duration": 0.09270833333334849
        },
        {
          "name": "F#3",
          "midi": 54,
          "time": 154.74374999999972,
          "velocity": 0.3543307086614173,
          "duration": 0.372916666666697
        },
        {
          "name": "D2",
          "midi": 38,
          "time": 155.41874999999976,
          "velocity": 0.3779527559055118,
          "duration": 0.09270833333332007
        },
        {
          "name": "F#3",
          "midi": 54,
          "time": 155.51145833333308,
          "velocity": 0.36220472440944884,
          "duration": 0.4645833333333371
        },
        {
          "name": "A3",
          "midi": 57,
          "time": 155.6510416666664,
          "velocity": 0.31496062992125984,
          "duration": 0.27812500000001705
        },
        {
          "name": "D3",
          "midi": 50,
          "time": 155.87083333333308,
          "velocity": 0.3228346456692913,
          "duration": 0.06979166666667425
        },
        {
          "name": "D2",
          "midi": 38,
          "time": 156.12708333333308,
          "velocity": 0.3937007874015748,
          "duration": 0.12812500000001137
        },
        {
          "name": "F#3",
          "midi": 54,
          "time": 156.1385416666664,
          "velocity": 0.3937007874015748,
          "duration": 0.1395833333333485
        },
        {
          "name": "D3",
          "midi": 50,
          "time": 156.4395833333331,
          "velocity": 0.3228346456692913,
          "duration": 0.10416666666665719
        },
        {
          "name": "F#3",
          "midi": 54,
          "time": 156.4520833333331,
          "velocity": 0.3464566929133858,
          "duration": 0.20937499999999432
        },
        {
          "name": "D2",
          "midi": 38,
          "time": 156.52187499999977,
          "velocity": 0.3228346456692913,
          "duration": 0.09270833333332007
        },
        {
          "name": "G1",
          "midi": 31,
          "time": 156.5333333333331,
          "velocity": 0.6929133858267716,
          "duration": 0.8718749999999886
        },
        {
          "name": "B3",
          "midi": 59,
          "time": 156.57916666666642,
          "velocity": 0.4330708661417323,
          "duration": 0.17395833333333144
        },
        {
          "name": "F#3",
          "midi": 54,
          "time": 156.82291666666643,
          "velocity": 0.3700787401574803,
          "duration": 0.21041666666667425
        },
        {
          "name": "B3",
          "midi": 59,
          "time": 156.9395833333331,
          "velocity": 0.3700787401574803,
          "duration": 0.23333333333332007
        },
        {
          "name": "G1",
          "midi": 31,
          "time": 157.59062499999976,
          "velocity": 0.6062992125984252,
          "duration": 0.6041666666666856
        },
        {
          "name": "D2",
          "midi": 38,
          "time": 157.59062499999976,
          "velocity": 0.3543307086614173,
          "duration": 0.08125000000001137
        },
        {
          "name": "B3",
          "midi": 59,
          "time": 157.7302083333331,
          "velocity": 0.44881889763779526,
          "duration": 0.40625
        },
        {
          "name": "F#3",
          "midi": 54,
          "time": 157.75312499999978,
          "velocity": 0.4015748031496063,
          "duration": 0.17395833333333144
        },
        {
          "name": "F#3",
          "midi": 54,
          "time": 158.1833333333331,
          "velocity": 0.36220472440944884,
          "duration": 0.5802083333333599
        },
        {
          "name": "A1",
          "midi": 33,
          "time": 158.22916666666646,
          "velocity": 0.7795275590551181,
          "duration": 0.8718749999999886
        },
        {
          "name": "E3",
          "midi": 52,
          "time": 158.91458333333313,
          "velocity": 0.2992125984251969,
          "duration": 0.16354166666664582
        },
        {
          "name": "F#3",
          "midi": 54,
          "time": 158.92708333333312,
          "velocity": 0.36220472440944884,
          "duration": 0.9177083333333087
        },
        {
          "name": "A1",
          "midi": 33,
          "time": 159.10104166666645,
          "velocity": 0.7244094488188977,
          "duration": 1.5437499999999886
        },
        {
          "name": "D5",
          "midi": 74,
          "time": 159.24062499999977,
          "velocity": 0.30708661417322836,
          "duration": 0.09270833333332007
        },
        {
          "name": "D5",
          "midi": 74,
          "time": 159.64687499999977,
          "velocity": 0.3228346456692913,
          "duration": 0.09270833333332007
        },
        {
          "name": "F#3",
          "midi": 54,
          "time": 159.85624999999976,
          "velocity": 0.4409448818897638,
          "duration": 0.24375000000000568
        },
        {
          "name": "A5",
          "midi": 81,
          "time": 160.73854166666644,
          "velocity": 0.47244094488188976,
          "duration": 0.11562499999999432
        },
        {
          "name": "A3",
          "midi": 57,
          "time": 160.7614583333331,
          "velocity": 0.3937007874015748,
          "duration": 0.12812499999998295
        },
        {
          "name": "A5",
          "midi": 81,
          "time": 160.85416666666643,
          "velocity": 0.4015748031496063,
          "duration": 0.21041666666667425
        },
        {
          "name": "A3",
          "midi": 57,
          "time": 161.05312499999977,
          "velocity": 0.4881889763779528,
          "duration": 0.19687500000000568
        },
        {
          "name": "A5",
          "midi": 81,
          "time": 161.0645833333331,
          "velocity": 0.4015748031496063,
          "duration": 0.06979166666667425
        },
        {
          "name": "A5",
          "midi": 81,
          "time": 161.13437499999978,
          "velocity": 0.3228346456692913,
          "duration": 0.13958333333332007
        },
        {
          "name": "A5",
          "midi": 81,
          "time": 161.2739583333331,
          "velocity": 0.4566929133858268,
          "duration": 0.16249999999999432
        },
        {
          "name": "A5",
          "midi": 81,
          "time": 161.4364583333331,
          "velocity": 0.3858267716535433,
          "duration": 0.06979166666667425
        },
        {
          "name": "A5",
          "midi": 81,
          "time": 161.52916666666644,
          "velocity": 0.31496062992125984,
          "duration": 0.27812499999998863
        },
        {
          "name": "A3",
          "midi": 57,
          "time": 161.66874999999976,
          "velocity": 0.33858267716535434,
          "duration": 0.19687500000000568
        },
        {
          "name": "A5",
          "midi": 81,
          "time": 161.8770833333331,
          "velocity": 0.33858267716535434,
          "duration": 0.31354166666667993
        },
        {
          "name": "A3",
          "midi": 57,
          "time": 162.15624999999977,
          "velocity": 0.36220472440944884,
          "duration": 0.37187500000001705
        },
        {
          "name": "A5",
          "midi": 81,
          "time": 162.19062499999978,
          "velocity": 0.31496062992125984,
          "duration": 0.19687500000000568
        },
        {
          "name": "A5",
          "midi": 81,
          "time": 162.38854166666647,
          "velocity": 0.44881889763779526,
          "duration": 0.16249999999999432
        },
        {
          "name": "A5",
          "midi": 81,
          "time": 162.55104166666646,
          "velocity": 0.49606299212598426,
          "duration": 0.10416666666665719
        },
        {
          "name": "A5",
          "midi": 81,
          "time": 162.65520833333312,
          "velocity": 0.36220472440944884,
          "duration": 0.17395833333335986
        },
        {
          "name": "E6",
          "midi": 88,
          "time": 162.6781249999998,
          "velocity": 0.2992125984251969,
          "duration": 0.12812500000001137
        },
        {
          "name": "A5",
          "midi": 81,
          "time": 162.82916666666648,
          "velocity": 0.36220472440944884,
          "duration": 0.3499999999999943
        },
        {
          "name": "E6",
          "midi": 88,
          "time": 163.01666666666648,
          "velocity": 0.33858267716535434,
          "duration": 0.09270833333332007
        },
        {
          "name": "A5",
          "midi": 81,
          "time": 163.2374999999998,
          "velocity": 0.25196850393700787,
          "duration": 0.06979166666667425
        },
        {
          "name": "A5",
          "midi": 81,
          "time": 163.3062499999998,
          "velocity": 0.33070866141732286,
          "duration": 0.17395833333335986
        },
        {
          "name": "A5",
          "midi": 81,
          "time": 164.01458333333318,
          "velocity": 0.3779527559055118,
          "duration": 0.12812499999998295
        },
        {
          "name": "E6",
          "midi": 88,
          "time": 164.01458333333318,
          "velocity": 0.28346456692913385,
          "duration": 0.11562499999999432
        },
        {
          "name": "E6",
          "midi": 88,
          "time": 164.14270833333316,
          "velocity": 0.31496062992125984,
          "duration": 0.1968750000000341
        },
        {
          "name": "A5",
          "midi": 81,
          "time": 164.14270833333316,
          "velocity": 0.3937007874015748,
          "duration": 0.08125000000001137
        },
        {
          "name": "A5",
          "midi": 81,
          "time": 164.22395833333317,
          "velocity": 0.3779527559055118,
          "duration": 0.08125000000001137
        },
        {
          "name": "A5",
          "midi": 81,
          "time": 164.30520833333318,
          "velocity": 0.3228346456692913,
          "duration": 0.2906250000000057
        },
        {
          "name": "A5",
          "midi": 81,
          "time": 164.5958333333332,
          "velocity": 0.4409448818897638,
          "duration": 0.12812500000001137
        },
        {
          "name": "E6",
          "midi": 88,
          "time": 164.6770833333332,
          "velocity": 0.30708661417322836,
          "duration": 0.06979166666667425
        },
        {
          "name": "A5",
          "midi": 81,
          "time": 164.8989583333332,
          "velocity": 0.2677165354330709,
          "duration": 0.18541666666666856
        },
        {
          "name": "E6",
          "midi": 88,
          "time": 165.68854166666654,
          "velocity": 0.3937007874015748,
          "duration": 0.09270833333332007
        },
        {
          "name": "A5",
          "midi": 81,
          "time": 165.75729166666653,
          "velocity": 0.44881889763779526,
          "duration": 0.12812499999998295
        }
      ],
      "controlChanges": {},
      "id": 1,
      "name": "",
      "instrumentNumber": 0,
      "instrument": "acoustic grand piano",
      "instrumentFamily": "piano",
      "channelNumber": 0,
      "isPercussion": false
    }
  ]
}